<svg xmlns="http://www.w3.org/2000/svg" xmlns:xlink="http://www.w3.org/1999/xlink" zoomAndPan="magnify" preserveAspectRatio="xMidYMid meet" version="1.0" viewBox="5.14 44.92 438.29 33.93"><defs><g/></defs><g fill="#095f70" fill-opacity="1"><g transform="translate(5.403301, 72.086154)"><g><path d="M 9.75 0.5 C 7.425781 0.5 5.5 -0.144531 3.96875 -1.4375 C 2.4375 -2.726562 1.46875 -4.550781 1.0625 -6.90625 L 6.09375 -6.90625 C 6.300781 -6.03125 6.710938 -5.335938 7.328125 -4.828125 C 7.941406 -4.316406 8.75 -4.0625 9.75 -4.0625 C 10.726562 -4.0625 11.484375 -4.359375 12.015625 -4.953125 C 12.546875 -5.546875 12.8125 -6.234375 12.8125 -7.015625 C 12.8125 -7.773438 12.609375 -8.375 12.203125 -8.8125 C 11.804688 -9.25 11.269531 -9.597656 10.59375 -9.859375 C 9.914062 -10.117188 9.175781 -10.367188 8.375 -10.609375 C 7.582031 -10.847656 6.78125 -11.117188 5.96875 -11.421875 C 5.164062 -11.734375 4.425781 -12.15625 3.75 -12.6875 C 3.070312 -13.21875 2.53125 -13.921875 2.125 -14.796875 C 1.726562 -15.679688 1.53125 -16.800781 1.53125 -18.15625 C 1.53125 -19.644531 1.894531 -20.9375 2.625 -22.03125 C 3.363281 -23.125 4.3125 -23.957031 5.46875 -24.53125 C 6.632812 -25.113281 7.875 -25.40625 9.1875 -25.40625 C 11.269531 -25.40625 13.046875 -24.832031 14.515625 -23.6875 C 15.992188 -22.539062 16.957031 -20.765625 17.40625 -18.359375 L 12.390625 -18.359375 C 11.910156 -20.023438 10.84375 -20.859375 9.1875 -20.859375 C 8.332031 -20.859375 7.65625 -20.613281 7.15625 -20.125 C 6.65625 -19.644531 6.40625 -19.023438 6.40625 -18.265625 C 6.40625 -17.523438 6.601562 -16.941406 7 -16.515625 C 7.40625 -16.085938 7.945312 -15.742188 8.625 -15.484375 C 9.300781 -15.222656 10.035156 -14.976562 10.828125 -14.75 C 11.628906 -14.53125 12.429688 -14.257812 13.234375 -13.9375 C 14.046875 -13.613281 14.789062 -13.175781 15.46875 -12.625 C 16.144531 -12.082031 16.679688 -11.375 17.078125 -10.5 C 17.484375 -9.625 17.6875 -8.5 17.6875 -7.125 C 17.6875 -5.625 17.304688 -4.300781 16.546875 -3.15625 C 15.785156 -2.019531 14.804688 -1.125 13.609375 -0.46875 C 12.410156 0.175781 11.125 0.5 9.75 0.5 Z M 9.75 0.5 "/></g></g></g><g fill="#095f70" fill-opacity="1"><g transform="translate(24.157102, 72.086154)"><g><path d="M 8.1875 6.765625 L 9.828125 0.109375 L 4.984375 0.109375 L 0.421875 -18.1875 L 5.34375 -18.1875 L 9.859375 -0.03125 L 14.34375 -18.1875 L 19 -18.1875 L 12.84375 6.765625 Z M 8.1875 6.765625 "/></g></g></g><g fill="#095f70" fill-opacity="1"><g transform="translate(43.58704, 72.086154)"><g><path d="M 15.015625 -10.109375 C 15.015625 -11.628906 14.671875 -12.738281 13.984375 -13.4375 C 13.296875 -14.132812 12.40625 -14.484375 11.3125 -14.484375 C 10.175781 -14.484375 9.164062 -14.132812 8.28125 -13.4375 C 7.40625 -12.738281 6.96875 -11.628906 6.96875 -10.109375 L 6.96875 0 L 2.484375 0 L 2.484375 -18.1875 L 6.96875 -18.1875 L 6.96875 -15.765625 C 7.707031 -16.742188 8.59375 -17.472656 9.625 -17.953125 C 10.65625 -18.441406 11.71875 -18.6875 12.8125 -18.6875 C 14.800781 -18.6875 16.410156 -18.039062 17.640625 -16.75 C 18.878906 -15.457031 19.5 -13.578125 19.5 -11.109375 L 19.5 0 L 15.015625 0 Z M 15.015625 -10.109375 "/></g></g></g><g fill="#095f70" fill-opacity="1"><g transform="translate(65.579168, 72.086154)"><g><path d="M 9.71875 0 C 8.601562 0 7.597656 -0.226562 6.703125 -0.6875 C 5.816406 -1.15625 5.117188 -1.800781 4.609375 -2.625 C 4.097656 -3.457031 3.84375 -4.421875 3.84375 -5.515625 L 3.84375 -14.171875 L 0.890625 -14.171875 L 0.890625 -18.1875 L 3.84375 -18.1875 L 3.84375 -22.78125 L 8.328125 -22.78125 L 8.328125 -18.1875 L 12.5625 -18.1875 L 12.5625 -14.171875 L 8.328125 -14.171875 L 8.328125 -5.515625 C 8.328125 -4.515625 8.789062 -4.015625 9.71875 -4.015625 L 12.3125 -4.015625 L 12.3125 0 Z M 9.71875 0 "/></g></g></g><g fill="#095f70" fill-opacity="1"><g transform="translate(79.742381, 72.086154)"><g><path d="M 15.0625 -10.109375 C 15.0625 -11.628906 14.707031 -12.738281 14 -13.4375 C 13.300781 -14.132812 12.40625 -14.484375 11.3125 -14.484375 C 10.175781 -14.484375 9.164062 -14.132812 8.28125 -13.4375 C 7.40625 -12.738281 6.96875 -11.628906 6.96875 -10.109375 L 6.96875 0 L 2.484375 0 L 2.484375 -24.921875 L 6.96875 -24.921875 L 6.96875 -15.765625 C 7.707031 -16.742188 8.59375 -17.472656 9.625 -17.953125 C 10.65625 -18.441406 11.71875 -18.6875 12.8125 -18.6875 C 14.800781 -18.6875 16.410156 -18.039062 17.640625 -16.75 C 18.878906 -15.457031 19.5 -13.578125 19.5 -11.109375 L 19.5 0 L 15.0625 0 Z M 15.0625 -10.109375 "/></g></g></g><g fill="#095f70" fill-opacity="1"><g transform="translate(101.73451, 72.086154)"><g><path d="M 11.03125 0.5 C 9.875 0.5 8.734375 0.289062 7.609375 -0.125 C 6.492188 -0.539062 5.484375 -1.144531 4.578125 -1.9375 C 3.679688 -2.726562 2.972656 -3.722656 2.453125 -4.921875 C 1.929688 -6.128906 1.671875 -7.515625 1.671875 -9.078125 C 1.671875 -11.191406 2.113281 -12.957031 3 -14.375 C 3.894531 -15.800781 5.039062 -16.875 6.4375 -17.59375 C 7.84375 -18.320312 9.316406 -18.6875 10.859375 -18.6875 C 11.992188 -18.6875 13.109375 -18.484375 14.203125 -18.078125 C 15.296875 -17.671875 16.28125 -17.066406 17.15625 -16.265625 C 18.03125 -15.460938 18.726562 -14.46875 19.25 -13.28125 C 19.78125 -12.09375 20.046875 -10.703125 20.046875 -9.109375 L 20.046875 -7.71875 L 6.125 -7.71875 C 6.382812 -6.269531 6.976562 -5.207031 7.90625 -4.53125 C 8.832031 -3.863281 9.875 -3.53125 11.03125 -3.53125 C 12.601562 -3.53125 13.753906 -4.003906 14.484375 -4.953125 L 19.6875 -4.953125 C 19.164062 -3.734375 18.445312 -2.722656 17.53125 -1.921875 C 16.613281 -1.117188 15.59375 -0.515625 14.46875 -0.109375 C 13.34375 0.296875 12.195312 0.5 11.03125 0.5 Z M 6.1875 -10.921875 L 15.3125 -10.921875 C 15.164062 -11.921875 14.859375 -12.722656 14.390625 -13.328125 C 13.929688 -13.929688 13.382812 -14.363281 12.75 -14.625 C 12.125 -14.882812 11.492188 -15.015625 10.859375 -15.015625 C 9.765625 -15.015625 8.785156 -14.675781 7.921875 -14 C 7.054688 -13.320312 6.476562 -12.296875 6.1875 -10.921875 Z M 6.1875 -10.921875 "/></g></g></g><g fill="#095f70" fill-opacity="1"><g transform="translate(123.441949, 72.086154)"><g><path d="M 9.71875 0 C 8.601562 0 7.597656 -0.226562 6.703125 -0.6875 C 5.816406 -1.15625 5.117188 -1.800781 4.609375 -2.625 C 4.097656 -3.457031 3.84375 -4.421875 3.84375 -5.515625 L 3.84375 -14.171875 L 0.890625 -14.171875 L 0.890625 -18.1875 L 3.84375 -18.1875 L 3.84375 -22.78125 L 8.328125 -22.78125 L 8.328125 -18.1875 L 12.5625 -18.1875 L 12.5625 -14.171875 L 8.328125 -14.171875 L 8.328125 -5.515625 C 8.328125 -4.515625 8.789062 -4.015625 9.71875 -4.015625 L 12.3125 -4.015625 L 12.3125 0 Z M 9.71875 0 "/></g></g></g><g fill="#095f70" fill-opacity="1"><g transform="translate(137.605162, 72.086154)"><g><path d="M 2.484375 0 L 2.484375 -18.1875 L 6.96875 -18.1875 L 6.96875 0 Z M 2.0625 -22.5625 C 2.0625 -23.34375 2.3125 -23.984375 2.8125 -24.484375 C 3.3125 -24.984375 3.953125 -25.234375 4.734375 -25.234375 C 5.492188 -25.234375 6.128906 -24.984375 6.640625 -24.484375 C 7.148438 -23.984375 7.40625 -23.34375 7.40625 -22.5625 C 7.40625 -21.78125 7.148438 -21.140625 6.640625 -20.640625 C 6.128906 -20.140625 5.492188 -19.890625 4.734375 -19.890625 C 3.953125 -19.890625 3.3125 -20.140625 2.8125 -20.640625 C 2.3125 -21.140625 2.0625 -21.78125 2.0625 -22.5625 Z M 2.0625 -22.5625 "/></g></g></g><g fill="#095f70" fill-opacity="1"><g transform="translate(147.07103, 72.086154)"><g><path d="M 10.890625 0.5 C 9.328125 0.5 7.84375 0.140625 6.4375 -0.578125 C 5.039062 -1.304688 3.894531 -2.378906 3 -3.796875 C 2.113281 -5.222656 1.671875 -6.984375 1.671875 -9.078125 C 1.671875 -11.191406 2.113281 -12.957031 3 -14.375 C 3.894531 -15.800781 5.039062 -16.875 6.4375 -17.59375 C 7.84375 -18.320312 9.328125 -18.6875 10.890625 -18.6875 C 12.148438 -18.6875 13.375 -18.441406 14.5625 -17.953125 C 15.75 -17.472656 16.796875 -16.742188 17.703125 -15.765625 C 18.617188 -14.796875 19.28125 -13.5625 19.6875 -12.0625 L 14.765625 -12.0625 C 14.390625 -12.894531 13.859375 -13.503906 13.171875 -13.890625 C 12.484375 -14.285156 11.722656 -14.484375 10.890625 -14.484375 C 9.554688 -14.484375 8.460938 -14.015625 7.609375 -13.078125 C 6.753906 -12.140625 6.328125 -10.804688 6.328125 -9.078125 C 6.328125 -7.367188 6.753906 -6.046875 7.609375 -5.109375 C 8.460938 -4.171875 9.554688 -3.703125 10.890625 -3.703125 C 11.796875 -3.703125 12.578125 -3.925781 13.234375 -4.375 C 13.898438 -4.820312 14.425781 -5.507812 14.8125 -6.4375 L 19.71875 -6.4375 C 19.34375 -4.894531 18.703125 -3.609375 17.796875 -2.578125 C 16.890625 -1.546875 15.835938 -0.773438 14.640625 -0.265625 C 13.441406 0.242188 12.191406 0.5 10.890625 0.5 Z M 10.890625 0.5 "/></g></g></g><g fill="#095f70" fill-opacity="1"><g transform="translate(168.387023, 72.086154)"><g/></g></g><g fill="#095f70" fill-opacity="1"><g transform="translate(179.062813, 72.086154)"><g><path d="M 2.484375 0 L 2.484375 -24.921875 L 11.171875 -24.921875 C 12.953125 -24.921875 14.617188 -24.632812 16.171875 -24.0625 C 17.734375 -23.488281 19.097656 -22.660156 20.265625 -21.578125 C 21.441406 -20.503906 22.363281 -19.203125 23.03125 -17.671875 C 23.695312 -16.140625 24.03125 -14.398438 24.03125 -12.453125 C 24.03125 -10.515625 23.695312 -8.78125 23.03125 -7.25 C 22.363281 -5.71875 21.441406 -4.410156 20.265625 -3.328125 C 19.097656 -2.242188 17.734375 -1.414062 16.171875 -0.84375 C 14.617188 -0.28125 12.953125 0 11.171875 0 Z M 7.1875 -4.40625 L 11.171875 -4.40625 C 12.742188 -4.40625 14.128906 -4.734375 15.328125 -5.390625 C 16.523438 -6.046875 17.460938 -6.976562 18.140625 -8.1875 C 18.816406 -9.394531 19.15625 -10.816406 19.15625 -12.453125 C 19.15625 -14.085938 18.816406 -15.507812 18.140625 -16.71875 C 17.460938 -17.9375 16.523438 -18.867188 15.328125 -19.515625 C 14.128906 -20.171875 12.742188 -20.5 11.171875 -20.5 L 7.1875 -20.5 Z M 7.1875 -4.40625 "/></g></g></g><g fill="#095f70" fill-opacity="1"><g transform="translate(204.435619, 72.086154)"><g><path d="M 7.515625 0.5 C 5.847656 0.5 4.472656 0.03125 3.390625 -0.90625 C 2.316406 -1.84375 1.78125 -3.175781 1.78125 -4.90625 C 1.78125 -6.425781 2.222656 -7.628906 3.109375 -8.515625 C 4.003906 -9.410156 5.351562 -10.097656 7.15625 -10.578125 L 12.421875 -11.953125 L 12.421875 -12.59375 C 12.421875 -13.144531 12.191406 -13.597656 11.734375 -13.953125 C 11.285156 -14.304688 10.671875 -14.484375 9.890625 -14.484375 C 9.203125 -14.484375 8.5625 -14.320312 7.96875 -14 C 7.375 -13.6875 6.984375 -13.113281 6.796875 -12.28125 L 1.953125 -12.28125 C 2.285156 -14.34375 3.164062 -15.925781 4.59375 -17.03125 C 6.019531 -18.132812 7.785156 -18.6875 9.890625 -18.6875 C 12.097656 -18.6875 13.816406 -18.128906 15.046875 -17.015625 C 16.285156 -15.898438 16.90625 -14.425781 16.90625 -12.59375 L 16.90625 0 L 12.421875 0 L 12.421875 -1.640625 C 11.828125 -0.898438 11.097656 -0.359375 10.234375 -0.015625 C 9.367188 0.328125 8.460938 0.5 7.515625 0.5 Z M 6.265625 -5.265625 C 6.265625 -4.597656 6.476562 -4.101562 6.90625 -3.78125 C 7.332031 -3.46875 7.878906 -3.3125 8.546875 -3.3125 C 9.585938 -3.3125 10.492188 -3.617188 11.265625 -4.234375 C 12.035156 -4.847656 12.421875 -5.65625 12.421875 -6.65625 L 12.421875 -8.328125 L 8.078125 -7.1875 C 6.867188 -6.832031 6.265625 -6.191406 6.265625 -5.265625 Z M 6.265625 -5.265625 "/></g></g></g><g fill="#095f70" fill-opacity="1"><g transform="translate(223.82998, 72.086154)"><g><path d="M 9.71875 0 C 8.601562 0 7.597656 -0.226562 6.703125 -0.6875 C 5.816406 -1.15625 5.117188 -1.800781 4.609375 -2.625 C 4.097656 -3.457031 3.84375 -4.421875 3.84375 -5.515625 L 3.84375 -14.171875 L 0.890625 -14.171875 L 0.890625 -18.1875 L 3.84375 -18.1875 L 3.84375 -22.78125 L 8.328125 -22.78125 L 8.328125 -18.1875 L 12.5625 -18.1875 L 12.5625 -14.171875 L 8.328125 -14.171875 L 8.328125 -5.515625 C 8.328125 -4.515625 8.789062 -4.015625 9.71875 -4.015625 L 12.3125 -4.015625 L 12.3125 0 Z M 9.71875 0 "/></g></g></g><g fill="#095f70" fill-opacity="1"><g transform="translate(237.993183, 72.086154)"><g><path d="M 7.515625 0.5 C 5.847656 0.5 4.472656 0.03125 3.390625 -0.90625 C 2.316406 -1.84375 1.78125 -3.175781 1.78125 -4.90625 C 1.78125 -6.425781 2.222656 -7.628906 3.109375 -8.515625 C 4.003906 -9.410156 5.351562 -10.097656 7.15625 -10.578125 L 12.421875 -11.953125 L 12.421875 -12.59375 C 12.421875 -13.144531 12.191406 -13.597656 11.734375 -13.953125 C 11.285156 -14.304688 10.671875 -14.484375 9.890625 -14.484375 C 9.203125 -14.484375 8.5625 -14.320312 7.96875 -14 C 7.375 -13.6875 6.984375 -13.113281 6.796875 -12.28125 L 1.953125 -12.28125 C 2.285156 -14.34375 3.164062 -15.925781 4.59375 -17.03125 C 6.019531 -18.132812 7.785156 -18.6875 9.890625 -18.6875 C 12.097656 -18.6875 13.816406 -18.128906 15.046875 -17.015625 C 16.285156 -15.898438 16.90625 -14.425781 16.90625 -12.59375 L 16.90625 0 L 12.421875 0 L 12.421875 -1.640625 C 11.828125 -0.898438 11.097656 -0.359375 10.234375 -0.015625 C 9.367188 0.328125 8.460938 0.5 7.515625 0.5 Z M 6.265625 -5.265625 C 6.265625 -4.597656 6.476562 -4.101562 6.90625 -3.78125 C 7.332031 -3.46875 7.878906 -3.3125 8.546875 -3.3125 C 9.585938 -3.3125 10.492188 -3.617188 11.265625 -4.234375 C 12.035156 -4.847656 12.421875 -5.65625 12.421875 -6.65625 L 12.421875 -8.328125 L 8.078125 -7.1875 C 6.867188 -6.832031 6.265625 -6.191406 6.265625 -5.265625 Z M 6.265625 -5.265625 "/></g></g></g><g fill="#095f70" fill-opacity="1"><g transform="translate(257.387544, 72.086154)"><g/></g></g><g fill="#095f70" fill-opacity="1"><g transform="translate(268.063334, 72.086154)"><g><path d="M 13.921875 0.5 C 11.546875 0.5 9.398438 -0.03125 7.484375 -1.09375 C 5.578125 -2.164062 4.070312 -3.675781 2.96875 -5.625 C 1.863281 -7.570312 1.3125 -9.847656 1.3125 -12.453125 C 1.3125 -14.421875 1.644531 -16.203125 2.3125 -17.796875 C 2.976562 -19.390625 3.890625 -20.75 5.046875 -21.875 C 6.210938 -23 7.566406 -23.867188 9.109375 -24.484375 C 10.648438 -25.097656 12.300781 -25.40625 14.0625 -25.40625 C 15.957031 -25.40625 17.675781 -25.0625 19.21875 -24.375 C 20.757812 -23.6875 22.078125 -22.742188 23.171875 -21.546875 C 24.265625 -20.347656 25.0625 -18.976562 25.5625 -17.4375 L 20.328125 -17.4375 C 19.710938 -18.476562 18.894531 -19.3125 17.875 -19.9375 C 16.851562 -20.570312 15.582031 -20.890625 14.0625 -20.890625 C 12.519531 -20.890625 11.15625 -20.535156 9.96875 -19.828125 C 8.78125 -19.117188 7.851562 -18.132812 7.1875 -16.875 C 6.519531 -15.613281 6.1875 -14.140625 6.1875 -12.453125 C 6.1875 -10.796875 6.492188 -9.332031 7.109375 -8.0625 C 7.734375 -6.789062 8.625 -5.796875 9.78125 -5.078125 C 10.945312 -4.367188 12.328125 -4.015625 13.921875 -4.015625 C 15.335938 -4.015625 16.546875 -4.238281 17.546875 -4.6875 C 18.546875 -5.144531 19.328125 -5.726562 19.890625 -6.4375 C 20.460938 -7.15625 20.820312 -7.914062 20.96875 -8.71875 L 14.671875 -8.71875 L 14.671875 -13.140625 L 25.984375 -13.140625 L 25.984375 -11.3125 C 25.984375 -8.988281 25.453125 -6.9375 24.390625 -5.15625 C 23.335938 -3.375 21.90625 -1.984375 20.09375 -0.984375 C 18.28125 0.00390625 16.222656 0.5 13.921875 0.5 Z M 13.921875 0.5 "/></g></g></g><g fill="#095f70" fill-opacity="1"><g transform="translate(295.357772, 72.086154)"><g><path d="M 11.03125 0.5 C 9.875 0.5 8.734375 0.289062 7.609375 -0.125 C 6.492188 -0.539062 5.484375 -1.144531 4.578125 -1.9375 C 3.679688 -2.726562 2.972656 -3.722656 2.453125 -4.921875 C 1.929688 -6.128906 1.671875 -7.515625 1.671875 -9.078125 C 1.671875 -11.191406 2.113281 -12.957031 3 -14.375 C 3.894531 -15.800781 5.039062 -16.875 6.4375 -17.59375 C 7.84375 -18.320312 9.316406 -18.6875 10.859375 -18.6875 C 11.992188 -18.6875 13.109375 -18.484375 14.203125 -18.078125 C 15.296875 -17.671875 16.28125 -17.066406 17.15625 -16.265625 C 18.03125 -15.460938 18.726562 -14.46875 19.25 -13.28125 C 19.78125 -12.09375 20.046875 -10.703125 20.046875 -9.109375 L 20.046875 -7.71875 L 6.125 -7.71875 C 6.382812 -6.269531 6.976562 -5.207031 7.90625 -4.53125 C 8.832031 -3.863281 9.875 -3.53125 11.03125 -3.53125 C 12.601562 -3.53125 13.753906 -4.003906 14.484375 -4.953125 L 19.6875 -4.953125 C 19.164062 -3.734375 18.445312 -2.722656 17.53125 -1.921875 C 16.613281 -1.117188 15.59375 -0.515625 14.46875 -0.109375 C 13.34375 0.296875 12.195312 0.5 11.03125 0.5 Z M 6.1875 -10.921875 L 15.3125 -10.921875 C 15.164062 -11.921875 14.859375 -12.722656 14.390625 -13.328125 C 13.929688 -13.929688 13.382812 -14.363281 12.75 -14.625 C 12.125 -14.882812 11.492188 -15.015625 10.859375 -15.015625 C 9.765625 -15.015625 8.785156 -14.675781 7.921875 -14 C 7.054688 -13.320312 6.476562 -12.296875 6.1875 -10.921875 Z M 6.1875 -10.921875 "/></g></g></g><g fill="#095f70" fill-opacity="1"><g transform="translate(317.065202, 72.086154)"><g><path d="M 15.015625 -10.109375 C 15.015625 -11.628906 14.671875 -12.738281 13.984375 -13.4375 C 13.296875 -14.132812 12.40625 -14.484375 11.3125 -14.484375 C 10.175781 -14.484375 9.164062 -14.132812 8.28125 -13.4375 C 7.40625 -12.738281 6.96875 -11.628906 6.96875 -10.109375 L 6.96875 0 L 2.484375 0 L 2.484375 -18.1875 L 6.96875 -18.1875 L 6.96875 -15.765625 C 7.707031 -16.742188 8.59375 -17.472656 9.625 -17.953125 C 10.65625 -18.441406 11.71875 -18.6875 12.8125 -18.6875 C 14.800781 -18.6875 16.410156 -18.039062 17.640625 -16.75 C 18.878906 -15.457031 19.5 -13.578125 19.5 -11.109375 L 19.5 0 L 15.015625 0 Z M 15.015625 -10.109375 "/></g></g></g><g fill="#095f70" fill-opacity="1"><g transform="translate(339.05735, 72.086154)"><g><path d="M 11.03125 0.5 C 9.875 0.5 8.734375 0.289062 7.609375 -0.125 C 6.492188 -0.539062 5.484375 -1.144531 4.578125 -1.9375 C 3.679688 -2.726562 2.972656 -3.722656 2.453125 -4.921875 C 1.929688 -6.128906 1.671875 -7.515625 1.671875 -9.078125 C 1.671875 -11.191406 2.113281 -12.957031 3 -14.375 C 3.894531 -15.800781 5.039062 -16.875 6.4375 -17.59375 C 7.84375 -18.320312 9.316406 -18.6875 10.859375 -18.6875 C 11.992188 -18.6875 13.109375 -18.484375 14.203125 -18.078125 C 15.296875 -17.671875 16.28125 -17.066406 17.15625 -16.265625 C 18.03125 -15.460938 18.726562 -14.46875 19.25 -13.28125 C 19.78125 -12.09375 20.046875 -10.703125 20.046875 -9.109375 L 20.046875 -7.71875 L 6.125 -7.71875 C 6.382812 -6.269531 6.976562 -5.207031 7.90625 -4.53125 C 8.832031 -3.863281 9.875 -3.53125 11.03125 -3.53125 C 12.601562 -3.53125 13.753906 -4.003906 14.484375 -4.953125 L 19.6875 -4.953125 C 19.164062 -3.734375 18.445312 -2.722656 17.53125 -1.921875 C 16.613281 -1.117188 15.59375 -0.515625 14.46875 -0.109375 C 13.34375 0.296875 12.195312 0.5 11.03125 0.5 Z M 6.1875 -10.921875 L 15.3125 -10.921875 C 15.164062 -11.921875 14.859375 -12.722656 14.390625 -13.328125 C 13.929688 -13.929688 13.382812 -14.363281 12.75 -14.625 C 12.125 -14.882812 11.492188 -15.015625 10.859375 -15.015625 C 9.765625 -15.015625 8.785156 -14.675781 7.921875 -14 C 7.054688 -13.320312 6.476562 -12.296875 6.1875 -10.921875 Z M 6.1875 -10.921875 "/></g></g></g><g fill="#095f70" fill-opacity="1"><g transform="translate(360.764779, 72.086154)"><g><path d="M 2.484375 0 L 2.484375 -18.1875 L 6.96875 -18.1875 L 6.96875 -15.765625 C 7.707031 -16.742188 8.59375 -17.472656 9.625 -17.953125 C 10.65625 -18.441406 11.71875 -18.6875 12.8125 -18.6875 L 12.8125 -14.0625 C 10.9375 -14.414062 9.492188 -14.222656 8.484375 -13.484375 C 7.472656 -12.753906 6.96875 -11.628906 6.96875 -10.109375 L 6.96875 0 Z M 2.484375 0 "/></g></g></g><g fill="#095f70" fill-opacity="1"><g transform="translate(374.394206, 72.086154)"><g><path d="M 7.515625 0.5 C 5.847656 0.5 4.472656 0.03125 3.390625 -0.90625 C 2.316406 -1.84375 1.78125 -3.175781 1.78125 -4.90625 C 1.78125 -6.425781 2.222656 -7.628906 3.109375 -8.515625 C 4.003906 -9.410156 5.351562 -10.097656 7.15625 -10.578125 L 12.421875 -11.953125 L 12.421875 -12.59375 C 12.421875 -13.144531 12.191406 -13.597656 11.734375 -13.953125 C 11.285156 -14.304688 10.671875 -14.484375 9.890625 -14.484375 C 9.203125 -14.484375 8.5625 -14.320312 7.96875 -14 C 7.375 -13.6875 6.984375 -13.113281 6.796875 -12.28125 L 1.953125 -12.28125 C 2.285156 -14.34375 3.164062 -15.925781 4.59375 -17.03125 C 6.019531 -18.132812 7.785156 -18.6875 9.890625 -18.6875 C 12.097656 -18.6875 13.816406 -18.128906 15.046875 -17.015625 C 16.285156 -15.898438 16.90625 -14.425781 16.90625 -12.59375 L 16.90625 0 L 12.421875 0 L 12.421875 -1.640625 C 11.828125 -0.898438 11.097656 -0.359375 10.234375 -0.015625 C 9.367188 0.328125 8.460938 0.5 7.515625 0.5 Z M 6.265625 -5.265625 C 6.265625 -4.597656 6.476562 -4.101562 6.90625 -3.78125 C 7.332031 -3.46875 7.878906 -3.3125 8.546875 -3.3125 C 9.585938 -3.3125 10.492188 -3.617188 11.265625 -4.234375 C 12.035156 -4.847656 12.421875 -5.65625 12.421875 -6.65625 L 12.421875 -8.328125 L 8.078125 -7.1875 C 6.867188 -6.832031 6.265625 -6.191406 6.265625 -5.265625 Z M 6.265625 -5.265625 "/></g></g></g><g fill="#095f70" fill-opacity="1"><g transform="translate(393.788567, 72.086154)"><g><path d="M 9.71875 0 C 8.601562 0 7.597656 -0.226562 6.703125 -0.6875 C 5.816406 -1.15625 5.117188 -1.800781 4.609375 -2.625 C 4.097656 -3.457031 3.84375 -4.421875 3.84375 -5.515625 L 3.84375 -14.171875 L 0.890625 -14.171875 L 0.890625 -18.1875 L 3.84375 -18.1875 L 3.84375 -22.78125 L 8.328125 -22.78125 L 8.328125 -18.1875 L 12.5625 -18.1875 L 12.5625 -14.171875 L 8.328125 -14.171875 L 8.328125 -5.515625 C 8.328125 -4.515625 8.789062 -4.015625 9.71875 -4.015625 L 12.3125 -4.015625 L 12.3125 0 Z M 9.71875 0 "/></g></g></g><g fill="#095f70" fill-opacity="1"><g transform="translate(407.95177, 72.086154)"><g><path d="M 11.359375 0.5 C 10.117188 0.5 8.921875 0.289062 7.765625 -0.125 C 6.617188 -0.539062 5.585938 -1.144531 4.671875 -1.9375 C 3.765625 -2.726562 3.035156 -3.722656 2.484375 -4.921875 C 1.941406 -6.128906 1.671875 -7.515625 1.671875 -9.078125 C 1.671875 -10.640625 1.941406 -12.019531 2.484375 -13.21875 C 3.035156 -14.414062 3.765625 -15.414062 4.671875 -16.21875 C 5.585938 -17.03125 6.617188 -17.644531 7.765625 -18.0625 C 8.921875 -18.476562 10.117188 -18.6875 11.359375 -18.6875 C 12.566406 -18.6875 13.742188 -18.476562 14.890625 -18.0625 C 16.046875 -17.644531 17.085938 -17.03125 18.015625 -16.21875 C 18.941406 -15.414062 19.671875 -14.414062 20.203125 -13.21875 C 20.734375 -12.019531 21 -10.640625 21 -9.078125 C 21 -7.515625 20.734375 -6.128906 20.203125 -4.921875 C 19.671875 -3.722656 18.941406 -2.726562 18.015625 -1.9375 C 17.085938 -1.144531 16.046875 -0.539062 14.890625 -0.125 C 13.742188 0.289062 12.566406 0.5 11.359375 0.5 Z M 6.328125 -9.078125 C 6.328125 -7.367188 6.800781 -6.046875 7.75 -5.109375 C 8.707031 -4.171875 9.910156 -3.703125 11.359375 -3.703125 C 12.804688 -3.703125 14 -4.171875 14.9375 -5.109375 C 15.875 -6.046875 16.34375 -7.367188 16.34375 -9.078125 C 16.34375 -10.804688 15.875 -12.140625 14.9375 -13.078125 C 14 -14.015625 12.804688 -14.484375 11.359375 -14.484375 C 9.910156 -14.484375 8.707031 -14.015625 7.75 -13.078125 C 6.800781 -12.140625 6.328125 -10.804688 6.328125 -9.078125 Z M 6.328125 -9.078125 "/></g></g></g><g fill="#095f70" fill-opacity="1"><g transform="translate(430.620035, 72.086154)"><g><path d="M 2.484375 0 L 2.484375 -18.1875 L 6.96875 -18.1875 L 6.96875 -15.765625 C 7.707031 -16.742188 8.59375 -17.472656 9.625 -17.953125 C 10.65625 -18.441406 11.71875 -18.6875 12.8125 -18.6875 L 12.8125 -14.0625 C 10.9375 -14.414062 9.492188 -14.222656 8.484375 -13.484375 C 7.472656 -12.753906 6.96875 -11.628906 6.96875 -10.109375 L 6.96875 0 Z M 2.484375 0 "/></g></g></g><g fill="#ea80fc" fill-opacity="1"><g transform="translate(4.080026, 70.328987)"><g><path d="M 9.75 0.5 C 7.425781 0.5 5.5 -0.144531 3.96875 -1.4375 C 2.4375 -2.726562 1.46875 -4.550781 1.0625 -6.90625 L 6.09375 -6.90625 C 6.300781 -6.03125 6.710938 -5.335938 7.328125 -4.828125 C 7.941406 -4.316406 8.75 -4.0625 9.75 -4.0625 C 10.726562 -4.0625 11.484375 -4.359375 12.015625 -4.953125 C 12.546875 -5.546875 12.8125 -6.234375 12.8125 -7.015625 C 12.8125 -7.773438 12.609375 -8.375 12.203125 -8.8125 C 11.804688 -9.25 11.269531 -9.597656 10.59375 -9.859375 C 9.914062 -10.117188 9.175781 -10.367188 8.375 -10.609375 C 7.582031 -10.847656 6.78125 -11.117188 5.96875 -11.421875 C 5.164062 -11.734375 4.425781 -12.15625 3.75 -12.6875 C 3.070312 -13.21875 2.53125 -13.921875 2.125 -14.796875 C 1.726562 -15.679688 1.53125 -16.800781 1.53125 -18.15625 C 1.53125 -19.644531 1.894531 -20.9375 2.625 -22.03125 C 3.363281 -23.125 4.3125 -23.957031 5.46875 -24.53125 C 6.632812 -25.113281 7.875 -25.40625 9.1875 -25.40625 C 11.269531 -25.40625 13.046875 -24.832031 14.515625 -23.6875 C 15.992188 -22.539062 16.957031 -20.765625 17.40625 -18.359375 L 12.390625 -18.359375 C 11.910156 -20.023438 10.84375 -20.859375 9.1875 -20.859375 C 8.332031 -20.859375 7.65625 -20.613281 7.15625 -20.125 C 6.65625 -19.644531 6.40625 -19.023438 6.40625 -18.265625 C 6.40625 -17.523438 6.601562 -16.941406 7 -16.515625 C 7.40625 -16.085938 7.945312 -15.742188 8.625 -15.484375 C 9.300781 -15.222656 10.035156 -14.976562 10.828125 -14.75 C 11.628906 -14.53125 12.429688 -14.257812 13.234375 -13.9375 C 14.046875 -13.613281 14.789062 -13.175781 15.46875 -12.625 C 16.144531 -12.082031 16.679688 -11.375 17.078125 -10.5 C 17.484375 -9.625 17.6875 -8.5 17.6875 -7.125 C 17.6875 -5.625 17.304688 -4.300781 16.546875 -3.15625 C 15.785156 -2.019531 14.804688 -1.125 13.609375 -0.46875 C 12.410156 0.175781 11.125 0.5 9.75 0.5 Z M 9.75 0.5 "/></g></g></g><g fill="#ea80fc" fill-opacity="1"><g transform="translate(22.833139, 70.328987)"><g><path d="M 8.1875 6.765625 L 9.828125 0.109375 L 4.984375 0.109375 L 0.421875 -18.1875 L 5.34375 -18.1875 L 9.859375 -0.03125 L 14.34375 -18.1875 L 19 -18.1875 L 12.84375 6.765625 Z M 8.1875 6.765625 "/></g></g></g><g fill="#ea80fc" fill-opacity="1"><g transform="translate(42.262358, 70.328987)"><g><path d="M 15.015625 -10.109375 C 15.015625 -11.628906 14.671875 -12.738281 13.984375 -13.4375 C 13.296875 -14.132812 12.40625 -14.484375 11.3125 -14.484375 C 10.175781 -14.484375 9.164062 -14.132812 8.28125 -13.4375 C 7.40625 -12.738281 6.96875 -11.628906 6.96875 -10.109375 L 6.96875 0 L 2.484375 0 L 2.484375 -18.1875 L 6.96875 -18.1875 L 6.96875 -15.765625 C 7.707031 -16.742188 8.59375 -17.472656 9.625 -17.953125 C 10.65625 -18.441406 11.71875 -18.6875 12.8125 -18.6875 C 14.800781 -18.6875 16.410156 -18.039062 17.640625 -16.75 C 18.878906 -15.457031 19.5 -13.578125 19.5 -11.109375 L 19.5 0 L 15.015625 0 Z M 15.015625 -10.109375 "/></g></g></g><g fill="#ea80fc" fill-opacity="1"><g transform="translate(64.253674, 70.328987)"><g><path d="M 9.71875 0 C 8.601562 0 7.597656 -0.226562 6.703125 -0.6875 C 5.816406 -1.15625 5.117188 -1.800781 4.609375 -2.625 C 4.097656 -3.457031 3.84375 -4.421875 3.84375 -5.515625 L 3.84375 -14.171875 L 0.890625 -14.171875 L 0.890625 -18.1875 L 3.84375 -18.1875 L 3.84375 -22.78125 L 8.328125 -22.78125 L 8.328125 -18.1875 L 12.5625 -18.1875 L 12.5625 -14.171875 L 8.328125 -14.171875 L 8.328125 -5.515625 C 8.328125 -4.515625 8.789062 -4.015625 9.71875 -4.015625 L 12.3125 -4.015625 L 12.3125 0 Z M 9.71875 0 "/></g></g></g><g fill="#ea80fc" fill-opacity="1"><g transform="translate(78.416365, 70.328987)"><g><path d="M 15.0625 -10.109375 C 15.0625 -11.628906 14.707031 -12.738281 14 -13.4375 C 13.300781 -14.132812 12.40625 -14.484375 11.3125 -14.484375 C 10.175781 -14.484375 9.164062 -14.132812 8.28125 -13.4375 C 7.40625 -12.738281 6.96875 -11.628906 6.96875 -10.109375 L 6.96875 0 L 2.484375 0 L 2.484375 -24.921875 L 6.96875 -24.921875 L 6.96875 -15.765625 C 7.707031 -16.742188 8.59375 -17.472656 9.625 -17.953125 C 10.65625 -18.441406 11.71875 -18.6875 12.8125 -18.6875 C 14.800781 -18.6875 16.410156 -18.039062 17.640625 -16.75 C 18.878906 -15.457031 19.5 -13.578125 19.5 -11.109375 L 19.5 0 L 15.0625 0 Z M 15.0625 -10.109375 "/></g></g></g><g fill="#ea80fc" fill-opacity="1"><g transform="translate(100.407682, 70.328987)"><g><path d="M 11.03125 0.5 C 9.875 0.5 8.734375 0.289062 7.609375 -0.125 C 6.492188 -0.539062 5.484375 -1.144531 4.578125 -1.9375 C 3.679688 -2.726562 2.972656 -3.722656 2.453125 -4.921875 C 1.929688 -6.128906 1.671875 -7.515625 1.671875 -9.078125 C 1.671875 -11.191406 2.113281 -12.957031 3 -14.375 C 3.894531 -15.800781 5.039062 -16.875 6.4375 -17.59375 C 7.84375 -18.320312 9.316406 -18.6875 10.859375 -18.6875 C 11.992188 -18.6875 13.109375 -18.484375 14.203125 -18.078125 C 15.296875 -17.671875 16.28125 -17.066406 17.15625 -16.265625 C 18.03125 -15.460938 18.726562 -14.46875 19.25 -13.28125 C 19.78125 -12.09375 20.046875 -10.703125 20.046875 -9.109375 L 20.046875 -7.71875 L 6.125 -7.71875 C 6.382812 -6.269531 6.976562 -5.207031 7.90625 -4.53125 C 8.832031 -3.863281 9.875 -3.53125 11.03125 -3.53125 C 12.601562 -3.53125 13.753906 -4.003906 14.484375 -4.953125 L 19.6875 -4.953125 C 19.164062 -3.734375 18.445312 -2.722656 17.53125 -1.921875 C 16.613281 -1.117188 15.59375 -0.515625 14.46875 -0.109375 C 13.34375 0.296875 12.195312 0.5 11.03125 0.5 Z M 6.1875 -10.921875 L 15.3125 -10.921875 C 15.164062 -11.921875 14.859375 -12.722656 14.390625 -13.328125 C 13.929688 -13.929688 13.382812 -14.363281 12.75 -14.625 C 12.125 -14.882812 11.492188 -15.015625 10.859375 -15.015625 C 9.765625 -15.015625 8.785156 -14.675781 7.921875 -14 C 7.054688 -13.320312 6.476562 -12.296875 6.1875 -10.921875 Z M 6.1875 -10.921875 "/></g></g></g><g fill="#ea80fc" fill-opacity="1"><g transform="translate(122.114317, 70.328987)"><g><path d="M 9.71875 0 C 8.601562 0 7.597656 -0.226562 6.703125 -0.6875 C 5.816406 -1.15625 5.117188 -1.800781 4.609375 -2.625 C 4.097656 -3.457031 3.84375 -4.421875 3.84375 -5.515625 L 3.84375 -14.171875 L 0.890625 -14.171875 L 0.890625 -18.1875 L 3.84375 -18.1875 L 3.84375 -22.78125 L 8.328125 -22.78125 L 8.328125 -18.1875 L 12.5625 -18.1875 L 12.5625 -14.171875 L 8.328125 -14.171875 L 8.328125 -5.515625 C 8.328125 -4.515625 8.789062 -4.015625 9.71875 -4.015625 L 12.3125 -4.015625 L 12.3125 0 Z M 9.71875 0 "/></g></g></g><g fill="#ea80fc" fill-opacity="1"><g transform="translate(136.277008, 70.328987)"><g><path d="M 2.484375 0 L 2.484375 -18.1875 L 6.96875 -18.1875 L 6.96875 0 Z M 2.0625 -22.5625 C 2.0625 -23.34375 2.3125 -23.984375 2.8125 -24.484375 C 3.3125 -24.984375 3.953125 -25.234375 4.734375 -25.234375 C 5.492188 -25.234375 6.128906 -24.984375 6.640625 -24.484375 C 7.148438 -23.984375 7.40625 -23.34375 7.40625 -22.5625 C 7.40625 -21.78125 7.148438 -21.140625 6.640625 -20.640625 C 6.128906 -20.140625 5.492188 -19.890625 4.734375 -19.890625 C 3.953125 -19.890625 3.3125 -20.140625 2.8125 -20.640625 C 2.3125 -21.140625 2.0625 -21.78125 2.0625 -22.5625 Z M 2.0625 -22.5625 "/></g></g></g><g fill="#ea80fc" fill-opacity="1"><g transform="translate(145.742523, 70.328987)"><g><path d="M 10.890625 0.5 C 9.328125 0.5 7.84375 0.140625 6.4375 -0.578125 C 5.039062 -1.304688 3.894531 -2.378906 3 -3.796875 C 2.113281 -5.222656 1.671875 -6.984375 1.671875 -9.078125 C 1.671875 -11.191406 2.113281 -12.957031 3 -14.375 C 3.894531 -15.800781 5.039062 -16.875 6.4375 -17.59375 C 7.84375 -18.320312 9.328125 -18.6875 10.890625 -18.6875 C 12.148438 -18.6875 13.375 -18.441406 14.5625 -17.953125 C 15.75 -17.472656 16.796875 -16.742188 17.703125 -15.765625 C 18.617188 -14.796875 19.28125 -13.5625 19.6875 -12.0625 L 14.765625 -12.0625 C 14.390625 -12.894531 13.859375 -13.503906 13.171875 -13.890625 C 12.484375 -14.285156 11.722656 -14.484375 10.890625 -14.484375 C 9.554688 -14.484375 8.460938 -14.015625 7.609375 -13.078125 C 6.753906 -12.140625 6.328125 -10.804688 6.328125 -9.078125 C 6.328125 -7.367188 6.753906 -6.046875 7.609375 -5.109375 C 8.460938 -4.171875 9.554688 -3.703125 10.890625 -3.703125 C 11.796875 -3.703125 12.578125 -3.925781 13.234375 -4.375 C 13.898438 -4.820312 14.425781 -5.507812 14.8125 -6.4375 L 19.71875 -6.4375 C 19.34375 -4.894531 18.703125 -3.609375 17.796875 -2.578125 C 16.890625 -1.546875 15.835938 -0.773438 14.640625 -0.265625 C 13.441406 0.242188 12.191406 0.5 10.890625 0.5 Z M 10.890625 0.5 "/></g></g></g><g fill="#84b0c1" fill-opacity="1"><g transform="translate(167.059604, 70.328987)"><g/></g></g><g fill="#84b0c1" fill-opacity="1"><g transform="translate(177.734998, 70.328987)"><g><path d="M 2.484375 0 L 2.484375 -24.921875 L 11.171875 -24.921875 C 12.953125 -24.921875 14.617188 -24.632812 16.171875 -24.0625 C 17.734375 -23.488281 19.097656 -22.660156 20.265625 -21.578125 C 21.441406 -20.503906 22.363281 -19.203125 23.03125 -17.671875 C 23.695312 -16.140625 24.03125 -14.398438 24.03125 -12.453125 C 24.03125 -10.515625 23.695312 -8.78125 23.03125 -7.25 C 22.363281 -5.71875 21.441406 -4.410156 20.265625 -3.328125 C 19.097656 -2.242188 17.734375 -1.414062 16.171875 -0.84375 C 14.617188 -0.28125 12.953125 0 11.171875 0 Z M 7.1875 -4.40625 L 11.171875 -4.40625 C 12.742188 -4.40625 14.128906 -4.734375 15.328125 -5.390625 C 16.523438 -6.046875 17.460938 -6.976562 18.140625 -8.1875 C 18.816406 -9.394531 19.15625 -10.816406 19.15625 -12.453125 C 19.15625 -14.085938 18.816406 -15.507812 18.140625 -16.71875 C 17.460938 -17.9375 16.523438 -18.867188 15.328125 -19.515625 C 14.128906 -20.171875 12.742188 -20.5 11.171875 -20.5 L 7.1875 -20.5 Z M 7.1875 -4.40625 "/></g></g></g><g fill="#84b0c1" fill-opacity="1"><g transform="translate(203.106846, 70.328987)"><g><path d="M 7.515625 0.5 C 5.847656 0.5 4.472656 0.03125 3.390625 -0.90625 C 2.316406 -1.84375 1.78125 -3.175781 1.78125 -4.90625 C 1.78125 -6.425781 2.222656 -7.628906 3.109375 -8.515625 C 4.003906 -9.410156 5.351562 -10.097656 7.15625 -10.578125 L 12.421875 -11.953125 L 12.421875 -12.59375 C 12.421875 -13.144531 12.191406 -13.597656 11.734375 -13.953125 C 11.285156 -14.304688 10.671875 -14.484375 9.890625 -14.484375 C 9.203125 -14.484375 8.5625 -14.320312 7.96875 -14 C 7.375 -13.6875 6.984375 -13.113281 6.796875 -12.28125 L 1.953125 -12.28125 C 2.285156 -14.34375 3.164062 -15.925781 4.59375 -17.03125 C 6.019531 -18.132812 7.785156 -18.6875 9.890625 -18.6875 C 12.097656 -18.6875 13.816406 -18.128906 15.046875 -17.015625 C 16.285156 -15.898438 16.90625 -14.425781 16.90625 -12.59375 L 16.90625 0 L 12.421875 0 L 12.421875 -1.640625 C 11.828125 -0.898438 11.097656 -0.359375 10.234375 -0.015625 C 9.367188 0.328125 8.460938 0.5 7.515625 0.5 Z M 6.265625 -5.265625 C 6.265625 -4.597656 6.476562 -4.101562 6.90625 -3.78125 C 7.332031 -3.46875 7.878906 -3.3125 8.546875 -3.3125 C 9.585938 -3.3125 10.492188 -3.617188 11.265625 -4.234375 C 12.035156 -4.847656 12.421875 -5.65625 12.421875 -6.65625 L 12.421875 -8.328125 L 8.078125 -7.1875 C 6.867188 -6.832031 6.265625 -6.191406 6.265625 -5.265625 Z M 6.265625 -5.265625 "/></g></g></g><g fill="#84b0c1" fill-opacity="1"><g transform="translate(222.500475, 70.328987)"><g><path d="M 9.71875 0 C 8.601562 0 7.597656 -0.226562 6.703125 -0.6875 C 5.816406 -1.15625 5.117188 -1.800781 4.609375 -2.625 C 4.097656 -3.457031 3.84375 -4.421875 3.84375 -5.515625 L 3.84375 -14.171875 L 0.890625 -14.171875 L 0.890625 -18.1875 L 3.84375 -18.1875 L 3.84375 -22.78125 L 8.328125 -22.78125 L 8.328125 -18.1875 L 12.5625 -18.1875 L 12.5625 -14.171875 L 8.328125 -14.171875 L 8.328125 -5.515625 C 8.328125 -4.515625 8.789062 -4.015625 9.71875 -4.015625 L 12.3125 -4.015625 L 12.3125 0 Z M 9.71875 0 "/></g></g></g><g fill="#84b0c1" fill-opacity="1"><g transform="translate(236.663166, 70.328987)"><g><path d="M 7.515625 0.5 C 5.847656 0.5 4.472656 0.03125 3.390625 -0.90625 C 2.316406 -1.84375 1.78125 -3.175781 1.78125 -4.90625 C 1.78125 -6.425781 2.222656 -7.628906 3.109375 -8.515625 C 4.003906 -9.410156 5.351562 -10.097656 7.15625 -10.578125 L 12.421875 -11.953125 L 12.421875 -12.59375 C 12.421875 -13.144531 12.191406 -13.597656 11.734375 -13.953125 C 11.285156 -14.304688 10.671875 -14.484375 9.890625 -14.484375 C 9.203125 -14.484375 8.5625 -14.320312 7.96875 -14 C 7.375 -13.6875 6.984375 -13.113281 6.796875 -12.28125 L 1.953125 -12.28125 C 2.285156 -14.34375 3.164062 -15.925781 4.59375 -17.03125 C 6.019531 -18.132812 7.785156 -18.6875 9.890625 -18.6875 C 12.097656 -18.6875 13.816406 -18.128906 15.046875 -17.015625 C 16.285156 -15.898438 16.90625 -14.425781 16.90625 -12.59375 L 16.90625 0 L 12.421875 0 L 12.421875 -1.640625 C 11.828125 -0.898438 11.097656 -0.359375 10.234375 -0.015625 C 9.367188 0.328125 8.460938 0.5 7.515625 0.5 Z M 6.265625 -5.265625 C 6.265625 -4.597656 6.476562 -4.101562 6.90625 -3.78125 C 7.332031 -3.46875 7.878906 -3.3125 8.546875 -3.3125 C 9.585938 -3.3125 10.492188 -3.617188 11.265625 -4.234375 C 12.035156 -4.847656 12.421875 -5.65625 12.421875 -6.65625 L 12.421875 -8.328125 L 8.078125 -7.1875 C 6.867188 -6.832031 6.265625 -6.191406 6.265625 -5.265625 Z M 6.265625 -5.265625 "/></g></g></g><g fill="#84b0c1" fill-opacity="1"><g transform="translate(256.056796, 70.328987)"><g/></g></g><g fill="#84b0c1" fill-opacity="1"><g transform="translate(266.73219, 70.328987)"><g><path d="M 13.921875 0.5 C 11.546875 0.5 9.398438 -0.03125 7.484375 -1.09375 C 5.578125 -2.164062 4.070312 -3.675781 2.96875 -5.625 C 1.863281 -7.570312 1.3125 -9.847656 1.3125 -12.453125 C 1.3125 -14.421875 1.644531 -16.203125 2.3125 -17.796875 C 2.976562 -19.390625 3.890625 -20.75 5.046875 -21.875 C 6.210938 -23 7.566406 -23.867188 9.109375 -24.484375 C 10.648438 -25.097656 12.300781 -25.40625 14.0625 -25.40625 C 15.957031 -25.40625 17.675781 -25.0625 19.21875 -24.375 C 20.757812 -23.6875 22.078125 -22.742188 23.171875 -21.546875 C 24.265625 -20.347656 25.0625 -18.976562 25.5625 -17.4375 L 20.328125 -17.4375 C 19.710938 -18.476562 18.894531 -19.3125 17.875 -19.9375 C 16.851562 -20.570312 15.582031 -20.890625 14.0625 -20.890625 C 12.519531 -20.890625 11.15625 -20.535156 9.96875 -19.828125 C 8.78125 -19.117188 7.851562 -18.132812 7.1875 -16.875 C 6.519531 -15.613281 6.1875 -14.140625 6.1875 -12.453125 C 6.1875 -10.796875 6.492188 -9.332031 7.109375 -8.0625 C 7.734375 -6.789062 8.625 -5.796875 9.78125 -5.078125 C 10.945312 -4.367188 12.328125 -4.015625 13.921875 -4.015625 C 15.335938 -4.015625 16.546875 -4.238281 17.546875 -4.6875 C 18.546875 -5.144531 19.328125 -5.726562 19.890625 -6.4375 C 20.460938 -7.15625 20.820312 -7.914062 20.96875 -8.71875 L 14.671875 -8.71875 L 14.671875 -13.140625 L 25.984375 -13.140625 L 25.984375 -11.3125 C 25.984375 -8.988281 25.453125 -6.9375 24.390625 -5.15625 C 23.335938 -3.375 21.90625 -1.984375 20.09375 -0.984375 C 18.28125 0.00390625 16.222656 0.5 13.921875 0.5 Z M 13.921875 0.5 "/></g></g></g><g fill="#84b0c1" fill-opacity="1"><g transform="translate(294.025609, 70.328987)"><g><path d="M 11.03125 0.5 C 9.875 0.5 8.734375 0.289062 7.609375 -0.125 C 6.492188 -0.539062 5.484375 -1.144531 4.578125 -1.9375 C 3.679688 -2.726562 2.972656 -3.722656 2.453125 -4.921875 C 1.929688 -6.128906 1.671875 -7.515625 1.671875 -9.078125 C 1.671875 -11.191406 2.113281 -12.957031 3 -14.375 C 3.894531 -15.800781 5.039062 -16.875 6.4375 -17.59375 C 7.84375 -18.320312 9.316406 -18.6875 10.859375 -18.6875 C 11.992188 -18.6875 13.109375 -18.484375 14.203125 -18.078125 C 15.296875 -17.671875 16.28125 -17.066406 17.15625 -16.265625 C 18.03125 -15.460938 18.726562 -14.46875 19.25 -13.28125 C 19.78125 -12.09375 20.046875 -10.703125 20.046875 -9.109375 L 20.046875 -7.71875 L 6.125 -7.71875 C 6.382812 -6.269531 6.976562 -5.207031 7.90625 -4.53125 C 8.832031 -3.863281 9.875 -3.53125 11.03125 -3.53125 C 12.601562 -3.53125 13.753906 -4.003906 14.484375 -4.953125 L 19.6875 -4.953125 C 19.164062 -3.734375 18.445312 -2.722656 17.53125 -1.921875 C 16.613281 -1.117188 15.59375 -0.515625 14.46875 -0.109375 C 13.34375 0.296875 12.195312 0.5 11.03125 0.5 Z M 6.1875 -10.921875 L 15.3125 -10.921875 C 15.164062 -11.921875 14.859375 -12.722656 14.390625 -13.328125 C 13.929688 -13.929688 13.382812 -14.363281 12.75 -14.625 C 12.125 -14.882812 11.492188 -15.015625 10.859375 -15.015625 C 9.765625 -15.015625 8.785156 -14.675781 7.921875 -14 C 7.054688 -13.320312 6.476562 -12.296875 6.1875 -10.921875 Z M 6.1875 -10.921875 "/></g></g></g><g fill="#84b0c1" fill-opacity="1"><g transform="translate(315.732244, 70.328987)"><g><path d="M 15.015625 -10.109375 C 15.015625 -11.628906 14.671875 -12.738281 13.984375 -13.4375 C 13.296875 -14.132812 12.40625 -14.484375 11.3125 -14.484375 C 10.175781 -14.484375 9.164062 -14.132812 8.28125 -13.4375 C 7.40625 -12.738281 6.96875 -11.628906 6.96875 -10.109375 L 6.96875 0 L 2.484375 0 L 2.484375 -18.1875 L 6.96875 -18.1875 L 6.96875 -15.765625 C 7.707031 -16.742188 8.59375 -17.472656 9.625 -17.953125 C 10.65625 -18.441406 11.71875 -18.6875 12.8125 -18.6875 C 14.800781 -18.6875 16.410156 -18.039062 17.640625 -16.75 C 18.878906 -15.457031 19.5 -13.578125 19.5 -11.109375 L 19.5 0 L 15.015625 0 Z M 15.015625 -10.109375 "/></g></g></g><g fill="#84b0c1" fill-opacity="1"><g transform="translate(337.723561, 70.328987)"><g><path d="M 11.03125 0.5 C 9.875 0.5 8.734375 0.289062 7.609375 -0.125 C 6.492188 -0.539062 5.484375 -1.144531 4.578125 -1.9375 C 3.679688 -2.726562 2.972656 -3.722656 2.453125 -4.921875 C 1.929688 -6.128906 1.671875 -7.515625 1.671875 -9.078125 C 1.671875 -11.191406 2.113281 -12.957031 3 -14.375 C 3.894531 -15.800781 5.039062 -16.875 6.4375 -17.59375 C 7.84375 -18.320312 9.316406 -18.6875 10.859375 -18.6875 C 11.992188 -18.6875 13.109375 -18.484375 14.203125 -18.078125 C 15.296875 -17.671875 16.28125 -17.066406 17.15625 -16.265625 C 18.03125 -15.460938 18.726562 -14.46875 19.25 -13.28125 C 19.78125 -12.09375 20.046875 -10.703125 20.046875 -9.109375 L 20.046875 -7.71875 L 6.125 -7.71875 C 6.382812 -6.269531 6.976562 -5.207031 7.90625 -4.53125 C 8.832031 -3.863281 9.875 -3.53125 11.03125 -3.53125 C 12.601562 -3.53125 13.753906 -4.003906 14.484375 -4.953125 L 19.6875 -4.953125 C 19.164062 -3.734375 18.445312 -2.722656 17.53125 -1.921875 C 16.613281 -1.117188 15.59375 -0.515625 14.46875 -0.109375 C 13.34375 0.296875 12.195312 0.5 11.03125 0.5 Z M 6.1875 -10.921875 L 15.3125 -10.921875 C 15.164062 -11.921875 14.859375 -12.722656 14.390625 -13.328125 C 13.929688 -13.929688 13.382812 -14.363281 12.75 -14.625 C 12.125 -14.882812 11.492188 -15.015625 10.859375 -15.015625 C 9.765625 -15.015625 8.785156 -14.675781 7.921875 -14 C 7.054688 -13.320312 6.476562 -12.296875 6.1875 -10.921875 Z M 6.1875 -10.921875 "/></g></g></g><g fill="#84b0c1" fill-opacity="1"><g transform="translate(359.430195, 70.328987)"><g><path d="M 2.484375 0 L 2.484375 -18.1875 L 6.96875 -18.1875 L 6.96875 -15.765625 C 7.707031 -16.742188 8.59375 -17.472656 9.625 -17.953125 C 10.65625 -18.441406 11.71875 -18.6875 12.8125 -18.6875 L 12.8125 -14.0625 C 10.9375 -14.414062 9.492188 -14.222656 8.484375 -13.484375 C 7.472656 -12.753906 6.96875 -11.628906 6.96875 -10.109375 L 6.96875 0 Z M 2.484375 0 "/></g></g></g><g fill="#84b0c1" fill-opacity="1"><g transform="translate(373.059111, 70.328987)"><g><path d="M 7.515625 0.5 C 5.847656 0.5 4.472656 0.03125 3.390625 -0.90625 C 2.316406 -1.84375 1.78125 -3.175781 1.78125 -4.90625 C 1.78125 -6.425781 2.222656 -7.628906 3.109375 -8.515625 C 4.003906 -9.410156 5.351562 -10.097656 7.15625 -10.578125 L 12.421875 -11.953125 L 12.421875 -12.59375 C 12.421875 -13.144531 12.191406 -13.597656 11.734375 -13.953125 C 11.285156 -14.304688 10.671875 -14.484375 9.890625 -14.484375 C 9.203125 -14.484375 8.5625 -14.320312 7.96875 -14 C 7.375 -13.6875 6.984375 -13.113281 6.796875 -12.28125 L 1.953125 -12.28125 C 2.285156 -14.34375 3.164062 -15.925781 4.59375 -17.03125 C 6.019531 -18.132812 7.785156 -18.6875 9.890625 -18.6875 C 12.097656 -18.6875 13.816406 -18.128906 15.046875 -17.015625 C 16.285156 -15.898438 16.90625 -14.425781 16.90625 -12.59375 L 16.90625 0 L 12.421875 0 L 12.421875 -1.640625 C 11.828125 -0.898438 11.097656 -0.359375 10.234375 -0.015625 C 9.367188 0.328125 8.460938 0.5 7.515625 0.5 Z M 6.265625 -5.265625 C 6.265625 -4.597656 6.476562 -4.101562 6.90625 -3.78125 C 7.332031 -3.46875 7.878906 -3.3125 8.546875 -3.3125 C 9.585938 -3.3125 10.492188 -3.617188 11.265625 -4.234375 C 12.035156 -4.847656 12.421875 -5.65625 12.421875 -6.65625 L 12.421875 -8.328125 L 8.078125 -7.1875 C 6.867188 -6.832031 6.265625 -6.191406 6.265625 -5.265625 Z M 6.265625 -5.265625 "/></g></g></g><g fill="#84b0c1" fill-opacity="1"><g transform="translate(392.452752, 70.328987)"><g><path d="M 9.71875 0 C 8.601562 0 7.597656 -0.226562 6.703125 -0.6875 C 5.816406 -1.15625 5.117188 -1.800781 4.609375 -2.625 C 4.097656 -3.457031 3.84375 -4.421875 3.84375 -5.515625 L 3.84375 -14.171875 L 0.890625 -14.171875 L 0.890625 -18.1875 L 3.84375 -18.1875 L 3.84375 -22.78125 L 8.328125 -22.78125 L 8.328125 -18.1875 L 12.5625 -18.1875 L 12.5625 -14.171875 L 8.328125 -14.171875 L 8.328125 -5.515625 C 8.328125 -4.515625 8.789062 -4.015625 9.71875 -4.015625 L 12.3125 -4.015625 L 12.3125 0 Z M 9.71875 0 "/></g></g></g><g fill="#84b0c1" fill-opacity="1"><g transform="translate(406.615443, 70.328987)"><g><path d="M 11.359375 0.5 C 10.117188 0.5 8.921875 0.289062 7.765625 -0.125 C 6.617188 -0.539062 5.585938 -1.144531 4.671875 -1.9375 C 3.765625 -2.726562 3.035156 -3.722656 2.484375 -4.921875 C 1.941406 -6.128906 1.671875 -7.515625 1.671875 -9.078125 C 1.671875 -10.640625 1.941406 -12.019531 2.484375 -13.21875 C 3.035156 -14.414062 3.765625 -15.414062 4.671875 -16.21875 C 5.585938 -17.03125 6.617188 -17.644531 7.765625 -18.0625 C 8.921875 -18.476562 10.117188 -18.6875 11.359375 -18.6875 C 12.566406 -18.6875 13.742188 -18.476562 14.890625 -18.0625 C 16.046875 -17.644531 17.085938 -17.03125 18.015625 -16.21875 C 18.941406 -15.414062 19.671875 -14.414062 20.203125 -13.21875 C 20.734375 -12.019531 21 -10.640625 21 -9.078125 C 21 -7.515625 20.734375 -6.128906 20.203125 -4.921875 C 19.671875 -3.722656 18.941406 -2.726562 18.015625 -1.9375 C 17.085938 -1.144531 16.046875 -0.539062 14.890625 -0.125 C 13.742188 0.289062 12.566406 0.5 11.359375 0.5 Z M 6.328125 -9.078125 C 6.328125 -7.367188 6.800781 -6.046875 7.75 -5.109375 C 8.707031 -4.171875 9.910156 -3.703125 11.359375 -3.703125 C 12.804688 -3.703125 14 -4.171875 14.9375 -5.109375 C 15.875 -6.046875 16.34375 -7.367188 16.34375 -9.078125 C 16.34375 -10.804688 15.875 -12.140625 14.9375 -13.078125 C 14 -14.015625 12.804688 -14.484375 11.359375 -14.484375 C 9.910156 -14.484375 8.707031 -14.015625 7.75 -13.078125 C 6.800781 -12.140625 6.328125 -10.804688 6.328125 -9.078125 Z M 6.328125 -9.078125 "/></g></g></g><g fill="#84b0c1" fill-opacity="1"><g transform="translate(429.282877, 70.328987)"><g><path d="M 2.484375 0 L 2.484375 -18.1875 L 6.96875 -18.1875 L 6.96875 -15.765625 C 7.707031 -16.742188 8.59375 -17.472656 9.625 -17.953125 C 10.65625 -18.441406 11.71875 -18.6875 12.8125 -18.6875 L 12.8125 -14.0625 C 10.9375 -14.414062 9.492188 -14.222656 8.484375 -13.484375 C 7.472656 -12.753906 6.96875 -11.628906 6.96875 -10.109375 L 6.96875 0 Z M 2.484375 0 "/></g></g></g></svg>