ISO-10303-21;
HEADER;
FILE_DESCRIPTION(('ViewDefinition [ReferenceView_V1.2]'),'2;1');
FILE_NAME('proiect_fundatie_inteligent.ifc','2026-08-05T12:02:14',(''),(''),'IfcOpenShell contributors - IfcOpenShell - v0.8.5+1c5b825','IfcOpenShell contributors - IfcOpenShell - v0.8.5+1c5b825','');
FILE_SCHEMA(('IFC4'));
ENDSEC;
DATA;
#1=IFCPERSON($,$,'',$,$,$,$,$);
#2=IFCORGANIZATION($,'',$,$,$);
#3=IFCPERSONANDORGANIZATION(#1,#2,$);
#4=IFCAPPLICATION(#2,'0.8.5+1c5b825','IfcOpenShell contributors - IfcOpenShell - v0.8.5+1c5b825','');
#5=IFCOWNERHISTORY(#3,#4,$,.NOTDEFINED.,$,#3,#4,1785931334);
#6=IFCDIRECTION((1.,0.,0.));
#7=IFCDIRECTION((0.,0.,1.));
#8=IFCCARTESIANPOINT((0.,0.,0.));
#9=IFCAXIS2PLACEMENT3D(#8,#7,#6);
#10=IFCDIRECTION((0.,1.));
#11=IFCGEOMETRICREPRESENTATIONCONTEXT($,'Model',3,1.0000000000000001E-05,#9,#10);
#12=IFCDIMENSIONALEXPONENTS(0,0,0,0,0,0,0);
#13=IFCSIUNIT(*,.LENGTHUNIT.,$,.METRE.);
#14=IFCSIUNIT(*,.AREAUNIT.,$,.SQUARE_METRE.);
#15=IFCSIUNIT(*,.VOLUMEUNIT.,$,.CUBIC_METRE.);
#16=IFCSIUNIT(*,.PLANEANGLEUNIT.,$,.RADIAN.);
#17=IFCMEASUREWITHUNIT(IFCPLANEANGLEMEASURE(0.017453292519943295),#16);
#18=IFCCONVERSIONBASEDUNIT(#12,.PLANEANGLEUNIT.,'DEGREE',#17);
#19=IFCUNITASSIGNMENT((#13,#14,#15,#18));
#20=IFCPROJECT('2PavbWBHz78uzlJU18rnfi',#5,'',$,$,$,$,(#11),#19);
#21=IFCSITE('2gbCJKyyr16Qz_7TFYW8Ym',$,'Teren Proiect',$,$,$,$,$,$,$,$,$,$,$);
#22=IFCBUILDING('2VVrPbH4r2vAMESMED_XuP',$,'Cl\X2\0103\X0\dire Nelu',$,$,$,$,$,$,$,$,$);
#23=IFCBUILDINGSTOREY('3GznTsCBv17eavGJkPwoLt',$,'Nivel Funda\X2\021B\X0\ii',$,$,$,$,$,$,-1.);
#24=IFCOWNERHISTORY(#3,#4,.READWRITE.,.ADDED.,1785931334,#3,#4,1785931334);
#25=IFCRELAGGREGATES('1gjpZkemn9uPO10kMQkEAG',#24,$,$,#20,(#21));
#26=IFCOWNERHISTORY(#3,#4,.READWRITE.,.ADDED.,1785931334,#3,#4,1785931334);
#27=IFCRELAGGREGATES('0b7pkHNtLCnBgEROTZE4SN',#26,$,$,#21,(#22));
#28=IFCOWNERHISTORY(#3,#4,.READWRITE.,.ADDED.,1785931334,#3,#4,1785931334);
#29=IFCRELAGGREGATES('33lCN9uDL9aBnNP62RVbJu',#28,$,$,#22,(#23));
#33=IFCRECTANGLEPROFILEDEF(.AREA.,$,$,1.2,1.);
#34=IFCDIRECTION((0.,0.,1.));
#35=IFCEXTRUDEDAREASOLID(#33,$,#34,0.40000000000000002);
#36=IFCSHAPEREPRESENTATION(#11,'Body','SweptSolid',(#35));
#37=IFCPRODUCTDEFINITIONSHAPE($,$,(#36));
#38=IFCFOOTING('3yJXc3cDH6PegP06S2bNzS',#46,'FD1','Funda\X2\021B\X0\ie Izolat\X2\0103\X0\ St\X2\00E2\X0\lp | Isolated concrete footing','C16/20',#45,#37,$,$);
#39=IFCOWNERHISTORY(#3,#4,.READWRITE.,.MODIFIED.,1785931335,#3,#4,1785931334);
#40=IFCRELCONTAINEDINSPATIALSTRUCTURE('1ExkXok0H8rQnfUEfCmHeW',#39,$,$,(#200,#420,#880,#640,#660,#180,#860,#160,#620,#400,#140,#380,#600,#820,#360,#840,#580,#800,#340,#560,#780,#120,#100,#540,#320,#80,#740,#60,#220,#680,#760,#300,#520,#38,#500,#280,#720,#260,#700,#920,#240,#480,#460,#440,#900),#23);
#41=IFCCARTESIANPOINT((0.,0.,-1.));
#42=IFCDIRECTION((0.,0.,1.));
#43=IFCDIRECTION((1.,0.,0.));
#44=IFCAXIS2PLACEMENT3D(#41,#42,#43);
#45=IFCLOCALPLACEMENT($,#44);
#46=IFCOWNERHISTORY(#3,#4,.READWRITE.,.ADDED.,1785931334,#3,#4,1785931334);
#47=IFCPROPERTYSINGLEVALUE('ClasaBeton',$,IFCLABEL('C16/20'),$);
#48=IFCPROPERTYSINGLEVALUE('DenumireRomana',$,IFCTEXT('Funda\X2\021B\X0\ie Izolat\X2\0103\X0\ St\X2\00E2\X0\lp'),$);
#49=IFCPROPERTYSINGLEVALUE('CotaNivel',$,IFCLENGTHMEASURE(-1.),$);
#50=IFCPROPERTYSET('3yQO37WSv8Ff31pe9QW8BN',$,'Pset_AdnotariInginerieAI',$,(#47,#48,#49));
#51=IFCRELDEFINESBYPROPERTIES('2pGyMK1cf2dAS_ysmG0k1A',$,$,$,(#38),#50);
#55=IFCRECTANGLEPROFILEDEF(.AREA.,$,$,1.2,0.80000000000000004);
#56=IFCDIRECTION((0.,0.,1.));
#57=IFCEXTRUDEDAREASOLID(#55,$,#56,0.40000000000000002);
#58=IFCSHAPEREPRESENTATION(#11,'Body','SweptSolid',(#57));
#59=IFCPRODUCTDEFINITIONSHAPE($,$,(#58));
#60=IFCCOLUMN('1uILAJtJbCeeZ1TIZP7yox',#66,'C1','Coloan\X2\0103\X0\ | Structural column','C30/45',#65,#59,$,$);
#61=IFCCARTESIANPOINT((4.,0.,-1.));
#62=IFCDIRECTION((0.,0.,1.));
#63=IFCDIRECTION((1.,0.,0.));
#64=IFCAXIS2PLACEMENT3D(#61,#62,#63);
#65=IFCLOCALPLACEMENT($,#64);
#66=IFCOWNERHISTORY(#3,#4,.READWRITE.,.ADDED.,1785931334,#3,#4,1785931334);
#67=IFCPROPERTYSINGLEVALUE('ClasaBeton',$,IFCLABEL('C30/45'),$);
#68=IFCPROPERTYSINGLEVALUE('DenumireRomana',$,IFCTEXT('Coloan\X2\0103\X0\'),$);
#69=IFCPROPERTYSINGLEVALUE('CotaNivel',$,IFCLENGTHMEASURE(-1.),$);
#70=IFCPROPERTYSET('3vM3g7G8L6eOVnzY0FAPLj',$,'Pset_AdnotariInginerieAI',$,(#67,#68,#69));
#71=IFCRELDEFINESBYPROPERTIES('2sebmYZ95EYPp6IryCcnY$',$,$,$,(#60),#70);
#75=IFCRECTANGLEPROFILEDEF(.AREA.,$,$,1.2,0.80000000000000004);
#76=IFCDIRECTION((0.,0.,1.));
#77=IFCEXTRUDEDAREASOLID(#75,$,#76,0.40000000000000002);
#78=IFCSHAPEREPRESENTATION(#11,'Body','SweptSolid',(#77));
#79=IFCPRODUCTDEFINITIONSHAPE($,$,(#78));
#80=IFCCOLUMN('0q9O1w9TD1JenHPWio3wqy',#86,'C2','Coloan\X2\0103\X0\ | Structural column','C30/45',#85,#79,$,$);
#81=IFCCARTESIANPOINT((8.,0.,-1.));
#82=IFCDIRECTION((0.,0.,1.));
#83=IFCDIRECTION((1.,0.,0.));
#84=IFCAXIS2PLACEMENT3D(#81,#82,#83);
#85=IFCLOCALPLACEMENT($,#84);
#86=IFCOWNERHISTORY(#3,#4,.READWRITE.,.ADDED.,1785931334,#3,#4,1785931334);
#87=IFCPROPERTYSINGLEVALUE('ClasaBeton',$,IFCLABEL('C30/45'),$);
#88=IFCPROPERTYSINGLEVALUE('DenumireRomana',$,IFCTEXT('Coloan\X2\0103\X0\'),$);
#89=IFCPROPERTYSINGLEVALUE('CotaNivel',$,IFCLENGTHMEASURE(-1.),$);
#90=IFCPROPERTYSET('0V9MB0$nD94fhHXfix1$wo',$,'Pset_AdnotariInginerieAI',$,(#87,#88,#89));
#91=IFCRELDEFINESBYPROPERTIES('15VAvpy_z6fPsRdXH0PTpI',$,$,$,(#80),#90);
#95=IFCRECTANGLEPROFILEDEF(.AREA.,$,$,1.2,0.80000000000000004);
#96=IFCDIRECTION((0.,0.,1.));
#97=IFCEXTRUDEDAREASOLID(#95,$,#96,0.40000000000000002);
#98=IFCSHAPEREPRESENTATION(#11,'Body','SweptSolid',(#97));
#99=IFCPRODUCTDEFINITIONSHAPE($,$,(#98));
#100=IFCCOLUMN('1SyJCnkkXAIOU$r2VaBICr',#106,'C3','Coloan\X2\0103\X0\ | Structural column','C30/45',#105,#99,$,$);
#101=IFCCARTESIANPOINT((12.,0.,-1.));
#102=IFCDIRECTION((0.,0.,1.));
#103=IFCDIRECTION((1.,0.,0.));
#104=IFCAXIS2PLACEMENT3D(#101,#102,#103);
#105=IFCLOCALPLACEMENT($,#104);
#106=IFCOWNERHISTORY(#3,#4,.READWRITE.,.ADDED.,1785931334,#3,#4,1785931334);
#107=IFCPROPERTYSINGLEVALUE('ClasaBeton',$,IFCLABEL('C30/45'),$);
#108=IFCPROPERTYSINGLEVALUE('DenumireRomana',$,IFCTEXT('Coloan\X2\0103\X0\'),$);
#109=IFCPROPERTYSINGLEVALUE('CotaNivel',$,IFCLENGTHMEASURE(-1.),$);
#110=IFCPROPERTYSET('29gFvnvdPB8BNNNt3v3XMB',$,'Pset_AdnotariInginerieAI',$,(#107,#108,#109));
#111=IFCRELDEFINESBYPROPERTIES('1Lsq8VSwn8txqVcaTJk0f1',$,$,$,(#100),#110);
#115=IFCRECTANGLEPROFILEDEF(.AREA.,$,$,1.2,0.80000000000000004);
#116=IFCDIRECTION((0.,0.,1.));
#117=IFCEXTRUDEDAREASOLID(#115,$,#116,0.40000000000000002);
#118=IFCSHAPEREPRESENTATION(#11,'Body','SweptSolid',(#117));
#119=IFCPRODUCTDEFINITIONSHAPE($,$,(#118));
#120=IFCCOLUMN('1xUq0mARj79QaKAHPscQQU',#126,'C4','Coloan\X2\0103\X0\ | Structural column','C30/45',#125,#119,$,$);
#121=IFCCARTESIANPOINT((16.,0.,-1.));
#122=IFCDIRECTION((0.,0.,1.));
#123=IFCDIRECTION((1.,0.,0.));
#124=IFCAXIS2PLACEMENT3D(#121,#122,#123);
#125=IFCLOCALPLACEMENT($,#124);
#126=IFCOWNERHISTORY(#3,#4,.READWRITE.,.ADDED.,1785931334,#3,#4,1785931334);
#127=IFCPROPERTYSINGLEVALUE('ClasaBeton',$,IFCLABEL('C30/45'),$);
#128=IFCPROPERTYSINGLEVALUE('DenumireRomana',$,IFCTEXT('Coloan\X2\0103\X0\'),$);
#129=IFCPROPERTYSINGLEVALUE('CotaNivel',$,IFCLENGTHMEASURE(-1.),$);
#130=IFCPROPERTYSET('2O6aFkAVH5qxMP_xf7ERcU',$,'Pset_AdnotariInginerieAI',$,(#127,#128,#129));
#131=IFCRELDEFINESBYPROPERTIES('1z$B6pfKPDMBgbUG8njghw',$,$,$,(#120),#130);
#135=IFCRECTANGLEPROFILEDEF(.AREA.,$,$,1.2,0.80000000000000004);
#136=IFCDIRECTION((0.,0.,1.));
#137=IFCEXTRUDEDAREASOLID(#135,$,#136,0.40000000000000002);
#138=IFCSHAPEREPRESENTATION(#11,'Body','SweptSolid',(#137));
#139=IFCPRODUCTDEFINITIONSHAPE($,$,(#138));
#140=IFCCOLUMN('0tYLUzDmX2gxVsBm9$yOF0',#146,'C5','Coloan\X2\0103\X0\ | Structural column','C30/45',#145,#139,$,$);
#141=IFCCARTESIANPOINT((20.,0.,-1.));
#142=IFCDIRECTION((0.,0.,1.));
#143=IFCDIRECTION((1.,0.,0.));
#144=IFCAXIS2PLACEMENT3D(#141,#142,#143);
#145=IFCLOCALPLACEMENT($,#144);
#146=IFCOWNERHISTORY(#3,#4,.READWRITE.,.ADDED.,1785931335,#3,#4,1785931335);
#147=IFCPROPERTYSINGLEVALUE('ClasaBeton',$,IFCLABEL('C30/45'),$);
#148=IFCPROPERTYSINGLEVALUE('DenumireRomana',$,IFCTEXT('Coloan\X2\0103\X0\'),$);
#149=IFCPROPERTYSINGLEVALUE('CotaNivel',$,IFCLENGTHMEASURE(-1.),$);
#150=IFCPROPERTYSET('1TRnlKjfP3DwRQ$cDH32D1',$,'Pset_AdnotariInginerieAI',$,(#147,#148,#149));
#151=IFCRELDEFINESBYPROPERTIES('2Aqq970qfE3PYxpMrNEzL2',$,$,$,(#140),#150);
#155=IFCRECTANGLEPROFILEDEF(.AREA.,$,$,1.2,0.80000000000000004);
#156=IFCDIRECTION((0.,0.,1.));
#157=IFCEXTRUDEDAREASOLID(#155,$,#156,0.40000000000000002);
#158=IFCSHAPEREPRESENTATION(#11,'Body','SweptSolid',(#157));
#159=IFCPRODUCTDEFINITIONSHAPE($,$,(#158));
#160=IFCCOLUMN('1txpElKH1ANBemz7f5koMb',#166,'C6','Coloan\X2\0103\X0\ | Structural column','C30/45',#165,#159,$,$);
#161=IFCCARTESIANPOINT((0.,4.,-1.));
#162=IFCDIRECTION((0.,0.,1.));
#163=IFCDIRECTION((1.,0.,0.));
#164=IFCAXIS2PLACEMENT3D(#161,#162,#163);
#165=IFCLOCALPLACEMENT($,#164);
#166=IFCOWNERHISTORY(#3,#4,.READWRITE.,.ADDED.,1785931335,#3,#4,1785931335);
#167=IFCPROPERTYSINGLEVALUE('ClasaBeton',$,IFCLABEL('C30/45'),$);
#168=IFCPROPERTYSINGLEVALUE('DenumireRomana',$,IFCTEXT('Coloan\X2\0103\X0\'),$);
#169=IFCPROPERTYSINGLEVALUE('CotaNivel',$,IFCLENGTHMEASURE(-1.),$);
#170=IFCPROPERTYSET('12TrPC6fnAlhYmJ8KzXPAy',$,'Pset_AdnotariInginerieAI',$,(#167,#168,#169));
#171=IFCRELDEFINESBYPROPERTIES('2H5RdGkjH9uuO4Xu1QI1hx',$,$,$,(#160),#170);
#175=IFCRECTANGLEPROFILEDEF(.AREA.,$,$,1.2,0.80000000000000004);
#176=IFCDIRECTION((0.,0.,1.));
#177=IFCEXTRUDEDAREASOLID(#175,$,#176,0.40000000000000002);
#178=IFCSHAPEREPRESENTATION(#11,'Body','SweptSolid',(#177));
#179=IFCPRODUCTDEFINITIONSHAPE($,$,(#178));
#180=IFCCOLUMN('1M4vzS9mf3HATYsWumkiqR',#186,'C7','Coloan\X2\0103\X0\ | Structural column','C30/45',#185,#179,$,$);
#181=IFCCARTESIANPOINT((4.,4.,-1.));
#182=IFCDIRECTION((0.,0.,1.));
#183=IFCDIRECTION((1.,0.,0.));
#184=IFCAXIS2PLACEMENT3D(#181,#182,#183);
#185=IFCLOCALPLACEMENT($,#184);
#186=IFCOWNERHISTORY(#3,#4,.READWRITE.,.ADDED.,1785931335,#3,#4,1785931335);
#187=IFCPROPERTYSINGLEVALUE('ClasaBeton',$,IFCLABEL('C30/45'),$);
#188=IFCPROPERTYSINGLEVALUE('DenumireRomana',$,IFCTEXT('Coloan\X2\0103\X0\'),$);
#189=IFCPROPERTYSINGLEVALUE('CotaNivel',$,IFCLENGTHMEASURE(-1.),$);
#190=IFCPROPERTYSET('1xMMOzoCzFSx_0iXqjxyJj',$,'Pset_AdnotariInginerieAI',$,(#187,#188,#189));
#191=IFCRELDEFINESBYPROPERTIES('1UZO4xMbL5jhxK1FGUCa6u',$,$,$,(#180),#190);
#195=IFCRECTANGLEPROFILEDEF(.AREA.,$,$,1.2,0.80000000000000004);
#196=IFCDIRECTION((0.,0.,1.));
#197=IFCEXTRUDEDAREASOLID(#195,$,#196,0.40000000000000002);
#198=IFCSHAPEREPRESENTATION(#11,'Body','SweptSolid',(#197));
#199=IFCPRODUCTDEFINITIONSHAPE($,$,(#198));
#200=IFCCOLUMN('2EUK50RsX5suR_6FKyZQPc',#206,'C8','Coloan\X2\0103\X0\ | Structural column','C30/45',#205,#199,$,$);
#201=IFCCARTESIANPOINT((8.,4.,-1.));
#202=IFCDIRECTION((0.,0.,1.));
#203=IFCDIRECTION((1.,0.,0.));
#204=IFCAXIS2PLACEMENT3D(#201,#202,#203);
#205=IFCLOCALPLACEMENT($,#204);
#206=IFCOWNERHISTORY(#3,#4,.READWRITE.,.ADDED.,1785931335,#3,#4,1785931335);
#207=IFCPROPERTYSINGLEVALUE('ClasaBeton',$,IFCLABEL('C30/45'),$);
#208=IFCPROPERTYSINGLEVALUE('DenumireRomana',$,IFCTEXT('Coloan\X2\0103\X0\'),$);
#209=IFCPROPERTYSINGLEVALUE('CotaNivel',$,IFCLENGTHMEASURE(-1.),$);
#210=IFCPROPERTYSET('2a_1b_Nn50YRDv0gJ1GRQL',$,'Pset_AdnotariInginerieAI',$,(#207,#208,#209));
#211=IFCRELDEFINESBYPROPERTIES('1ixX0NQm9EH8w4DpGOghy$',$,$,$,(#200),#210);
#215=IFCRECTANGLEPROFILEDEF(.AREA.,$,$,1.2,0.80000000000000004);
#216=IFCDIRECTION((0.,0.,1.));
#217=IFCEXTRUDEDAREASOLID(#215,$,#216,0.40000000000000002);
#218=IFCSHAPEREPRESENTATION(#11,'Body','SweptSolid',(#217));
#219=IFCPRODUCTDEFINITIONSHAPE($,$,(#218));
#220=IFCCOLUMN('2uxKF8anzC7QRfJS5xg55Y',#226,'C9','Coloan\X2\0103\X0\ | Structural column','C30/45',#225,#219,$,$);
#221=IFCCARTESIANPOINT((12.,4.,-1.));
#222=IFCDIRECTION((0.,0.,1.));
#223=IFCDIRECTION((1.,0.,0.));
#224=IFCAXIS2PLACEMENT3D(#221,#222,#223);
#225=IFCLOCALPLACEMENT($,#224);
#226=IFCOWNERHISTORY(#3,#4,.READWRITE.,.ADDED.,1785931335,#3,#4,1785931335);
#227=IFCPROPERTYSINGLEVALUE('ClasaBeton',$,IFCLABEL('C30/45'),$);
#228=IFCPROPERTYSINGLEVALUE('DenumireRomana',$,IFCTEXT('Coloan\X2\0103\X0\'),$);
#229=IFCPROPERTYSINGLEVALUE('CotaNivel',$,IFCLENGTHMEASURE(-1.),$);
#230=IFCPROPERTYSET('3UzUsG_bP3gBQs4M0QaKZt',$,'Pset_AdnotariInginerieAI',$,(#227,#228,#229));
#231=IFCRELDEFINESBYPROPERTIES('1sfI2iHKz9eRhBSHbgGKzG',$,$,$,(#220),#230);
#235=IFCRECTANGLEPROFILEDEF(.AREA.,$,$,1.2,0.80000000000000004);
#236=IFCDIRECTION((0.,0.,1.));
#237=IFCEXTRUDEDAREASOLID(#235,$,#236,0.40000000000000002);
#238=IFCSHAPEREPRESENTATION(#11,'Body','SweptSolid',(#237));
#239=IFCPRODUCTDEFINITIONSHAPE($,$,(#238));
#240=IFCCOLUMN('1VeejUxVT8jQ1YK3_$JgmQ',#246,'C10','Coloan\X2\0103\X0\ | Structural column','C30/45',#245,#239,$,$);
#241=IFCCARTESIANPOINT((16.,4.,-1.));
#242=IFCDIRECTION((0.,0.,1.));
#243=IFCDIRECTION((1.,0.,0.));
#244=IFCAXIS2PLACEMENT3D(#241,#242,#243);
#245=IFCLOCALPLACEMENT($,#244);
#246=IFCOWNERHISTORY(#3,#4,.READWRITE.,.ADDED.,1785931335,#3,#4,1785931335);
#247=IFCPROPERTYSINGLEVALUE('ClasaBeton',$,IFCLABEL('C30/45'),$);
#248=IFCPROPERTYSINGLEVALUE('DenumireRomana',$,IFCTEXT('Coloan\X2\0103\X0\'),$);
#249=IFCPROPERTYSINGLEVALUE('CotaNivel',$,IFCLENGTHMEASURE(-1.),$);
#250=IFCPROPERTYSET('3_Pwd4N9z9AurkHOJfVpWr',$,'Pset_AdnotariInginerieAI',$,(#247,#248,#249));
#251=IFCRELDEFINESBYPROPERTIES('2IBb$yUGjEqBynAMW2Y8Qh',$,$,$,(#240),#250);
#255=IFCRECTANGLEPROFILEDEF(.AREA.,$,$,1.2,0.80000000000000004);
#256=IFCDIRECTION((0.,0.,1.));
#257=IFCEXTRUDEDAREASOLID(#255,$,#256,0.40000000000000002);
#258=IFCSHAPEREPRESENTATION(#11,'Body','SweptSolid',(#257));
#259=IFCPRODUCTDEFINITIONSHAPE($,$,(#258));
#260=IFCCOLUMN('1jFRkYFwL1AgjaQ$nhjSMl',#266,'C11','Coloan\X2\0103\X0\ | Structural column','C30/45',#265,#259,$,$);
#261=IFCCARTESIANPOINT((20.,4.,-1.));
#262=IFCDIRECTION((0.,0.,1.));
#263=IFCDIRECTION((1.,0.,0.));
#264=IFCAXIS2PLACEMENT3D(#261,#262,#263);
#265=IFCLOCALPLACEMENT($,#264);
#266=IFCOWNERHISTORY(#3,#4,.READWRITE.,.ADDED.,1785931335,#3,#4,1785931335);
#267=IFCPROPERTYSINGLEVALUE('ClasaBeton',$,IFCLABEL('C30/45'),$);
#268=IFCPROPERTYSINGLEVALUE('DenumireRomana',$,IFCTEXT('Coloan\X2\0103\X0\'),$);
#269=IFCPROPERTYSINGLEVALUE('CotaNivel',$,IFCLENGTHMEASURE(-1.),$);
#270=IFCPROPERTYSET('3Y7z_Rxrz6rf_BJYgbInQs',$,'Pset_AdnotariInginerieAI',$,(#267,#268,#269));
#271=IFCRELDEFINESBYPROPERTIES('2l3njIl358z9cb4Oewd7fJ',$,$,$,(#260),#270);
#275=IFCRECTANGLEPROFILEDEF(.AREA.,$,$,1.2,0.80000000000000004);
#276=IFCDIRECTION((0.,0.,1.));
#277=IFCEXTRUDEDAREASOLID(#275,$,#276,0.40000000000000002);
#278=IFCSHAPEREPRESENTATION(#11,'Body','SweptSolid',(#277));
#279=IFCPRODUCTDEFINITIONSHAPE($,$,(#278));
#280=IFCCOLUMN('2Sm0rQvjv1oOaweIeKCC2m',#286,'C12','Coloan\X2\0103\X0\ | Structural column','C30/45',#285,#279,$,$);
#281=IFCCARTESIANPOINT((0.,8.,-1.));
#282=IFCDIRECTION((0.,0.,1.));
#283=IFCDIRECTION((1.,0.,0.));
#284=IFCAXIS2PLACEMENT3D(#281,#282,#283);
#285=IFCLOCALPLACEMENT($,#284);
#286=IFCOWNERHISTORY(#3,#4,.READWRITE.,.ADDED.,1785931335,#3,#4,1785931335);
#287=IFCPROPERTYSINGLEVALUE('ClasaBeton',$,IFCLABEL('C30/45'),$);
#288=IFCPROPERTYSINGLEVALUE('DenumireRomana',$,IFCTEXT('Coloan\X2\0103\X0\'),$);
#289=IFCPROPERTYSINGLEVALUE('CotaNivel',$,IFCLENGTHMEASURE(-1.),$);
#290=IFCPROPERTYSET('06$1hwcxj7ZOlWdkIxtibo',$,'Pset_AdnotariInginerieAI',$,(#287,#288,#289));
#291=IFCRELDEFINESBYPROPERTIES('3gfFVVt6L0_hnhHrlPDLsm',$,$,$,(#280),#290);
#295=IFCRECTANGLEPROFILEDEF(.AREA.,$,$,1.2,0.80000000000000004);
#296=IFCDIRECTION((0.,0.,1.));
#297=IFCEXTRUDEDAREASOLID(#295,$,#296,0.40000000000000002);
#298=IFCSHAPEREPRESENTATION(#11,'Body','SweptSolid',(#297));
#299=IFCPRODUCTDEFINITIONSHAPE($,$,(#298));
#300=IFCCOLUMN('2w5RV1cq57hQYcbdwWKHUU',#306,'C13','Coloan\X2\0103\X0\ | Structural column','C30/45',#305,#299,$,$);
#301=IFCCARTESIANPOINT((4.,8.,-1.));
#302=IFCDIRECTION((0.,0.,1.));
#303=IFCDIRECTION((1.,0.,0.));
#304=IFCAXIS2PLACEMENT3D(#301,#302,#303);
#305=IFCLOCALPLACEMENT($,#304);
#306=IFCOWNERHISTORY(#3,#4,.READWRITE.,.ADDED.,1785931335,#3,#4,1785931335);
#307=IFCPROPERTYSINGLEVALUE('ClasaBeton',$,IFCLABEL('C30/45'),$);
#308=IFCPROPERTYSINGLEVALUE('DenumireRomana',$,IFCTEXT('Coloan\X2\0103\X0\'),$);
#309=IFCPROPERTYSINGLEVALUE('CotaNivel',$,IFCLENGTHMEASURE(-1.),$);
#310=IFCPROPERTYSET('0C6xl65ELCV8WTPixCvSCZ',$,'Pset_AdnotariInginerieAI',$,(#307,#308,#309));
#311=IFCRELDEFINESBYPROPERTIES('0ILvozSyDBiP7r$g9vwVPl',$,$,$,(#300),#310);
#315=IFCRECTANGLEPROFILEDEF(.AREA.,$,$,1.2,0.80000000000000004);
#316=IFCDIRECTION((0.,0.,1.));
#317=IFCEXTRUDEDAREASOLID(#315,$,#316,0.40000000000000002);
#318=IFCSHAPEREPRESENTATION(#11,'Body','SweptSolid',(#317));
#319=IFCPRODUCTDEFINITIONSHAPE($,$,(#318));
#320=IFCCOLUMN('2u9lLI4xDFbBzktp4I78_Z',#326,'C14','Coloan\X2\0103\X0\ | Structural column','C30/45',#325,#319,$,$);
#321=IFCCARTESIANPOINT((8.,8.,-1.));
#322=IFCDIRECTION((0.,0.,1.));
#323=IFCDIRECTION((1.,0.,0.));
#324=IFCAXIS2PLACEMENT3D(#321,#322,#323);
#325=IFCLOCALPLACEMENT($,#324);
#326=IFCOWNERHISTORY(#3,#4,.READWRITE.,.ADDED.,1785931335,#3,#4,1785931335);
#327=IFCPROPERTYSINGLEVALUE('ClasaBeton',$,IFCLABEL('C30/45'),$);
#328=IFCPROPERTYSINGLEVALUE('DenumireRomana',$,IFCTEXT('Coloan\X2\0103\X0\'),$);
#329=IFCPROPERTYSINGLEVALUE('CotaNivel',$,IFCLENGTHMEASURE(-1.),$);
#330=IFCPROPERTYSET('0wLdT4AX51xwvFGe8sKN5e',$,'Pset_AdnotariInginerieAI',$,(#327,#328,#329));
#331=IFCRELDEFINESBYPROPERTIES('2SXFPe7BD4QROOXI_gTxPP',$,$,$,(#320),#330);
#335=IFCRECTANGLEPROFILEDEF(.AREA.,$,$,1.2,0.80000000000000004);
#336=IFCDIRECTION((0.,0.,1.));
#337=IFCEXTRUDEDAREASOLID(#335,$,#336,0.40000000000000002);
#338=IFCSHAPEREPRESENTATION(#11,'Body','SweptSolid',(#337));
#339=IFCPRODUCTDEFINITIONSHAPE($,$,(#338));
#340=IFCCOLUMN('3JAo7NXdX4AvQgme7tbdZM',#346,'C15','Coloan\X2\0103\X0\ | Structural column','C30/45',#345,#339,$,$);
#341=IFCCARTESIANPOINT((12.,8.,-1.));
#342=IFCDIRECTION((0.,0.,1.));
#343=IFCDIRECTION((1.,0.,0.));
#344=IFCAXIS2PLACEMENT3D(#341,#342,#343);
#345=IFCLOCALPLACEMENT($,#344);
#346=IFCOWNERHISTORY(#3,#4,.READWRITE.,.ADDED.,1785931335,#3,#4,1785931335);
#347=IFCPROPERTYSINGLEVALUE('ClasaBeton',$,IFCLABEL('C30/45'),$);
#348=IFCPROPERTYSINGLEVALUE('DenumireRomana',$,IFCTEXT('Coloan\X2\0103\X0\'),$);
#349=IFCPROPERTYSINGLEVALUE('CotaNivel',$,IFCLENGTHMEASURE(-1.),$);
#350=IFCPROPERTYSET('1EwLhGP4vAERNv8UM7acP$',$,'Pset_AdnotariInginerieAI',$,(#347,#348,#349));
#351=IFCRELDEFINESBYPROPERTIES('1EfXlr__53veP3ToQ3JfMY',$,$,$,(#340),#350);
#355=IFCRECTANGLEPROFILEDEF(.AREA.,$,$,1.2,0.80000000000000004);
#356=IFCDIRECTION((0.,0.,1.));
#357=IFCEXTRUDEDAREASOLID(#355,$,#356,0.40000000000000002);
#358=IFCSHAPEREPRESENTATION(#11,'Body','SweptSolid',(#357));
#359=IFCPRODUCTDEFINITIONSHAPE($,$,(#358));
#360=IFCCOLUMN('39Rnp2w4b00BV9wXc87o3g',#366,'C16','Coloan\X2\0103\X0\ | Structural column','C30/45',#365,#359,$,$);
#361=IFCCARTESIANPOINT((16.,8.,-1.));
#362=IFCDIRECTION((0.,0.,1.));
#363=IFCDIRECTION((1.,0.,0.));
#364=IFCAXIS2PLACEMENT3D(#361,#362,#363);
#365=IFCLOCALPLACEMENT($,#364);
#366=IFCOWNERHISTORY(#3,#4,.READWRITE.,.ADDED.,1785931335,#3,#4,1785931335);
#367=IFCPROPERTYSINGLEVALUE('ClasaBeton',$,IFCLABEL('C30/45'),$);
#368=IFCPROPERTYSINGLEVALUE('DenumireRomana',$,IFCTEXT('Coloan\X2\0103\X0\'),$);
#369=IFCPROPERTYSINGLEVALUE('CotaNivel',$,IFCLENGTHMEASURE(-1.),$);
#370=IFCPROPERTYSET('0r0M0UKPb82g40e_FOh7mf',$,'Pset_AdnotariInginerieAI',$,(#367,#368,#369));
#371=IFCRELDEFINESBYPROPERTIES('2TKUHahoD1iQNeFtJqQRF3',$,$,$,(#360),#370);
#375=IFCRECTANGLEPROFILEDEF(.AREA.,$,$,1.2,0.80000000000000004);
#376=IFCDIRECTION((0.,0.,1.));
#377=IFCEXTRUDEDAREASOLID(#375,$,#376,0.40000000000000002);
#378=IFCSHAPEREPRESENTATION(#11,'Body','SweptSolid',(#377));
#379=IFCPRODUCTDEFINITIONSHAPE($,$,(#378));
#380=IFCCOLUMN('1o6oi0qG97hvxHsacL7$vO',#386,'C17','Coloan\X2\0103\X0\ | Structural column','C30/45',#385,#379,$,$);
#381=IFCCARTESIANPOINT((20.,8.,-1.));
#382=IFCDIRECTION((0.,0.,1.));
#383=IFCDIRECTION((1.,0.,0.));
#384=IFCAXIS2PLACEMENT3D(#381,#382,#383);
#385=IFCLOCALPLACEMENT($,#384);
#386=IFCOWNERHISTORY(#3,#4,.READWRITE.,.ADDED.,1785931335,#3,#4,1785931335);
#387=IFCPROPERTYSINGLEVALUE('ClasaBeton',$,IFCLABEL('C30/45'),$);
#388=IFCPROPERTYSINGLEVALUE('DenumireRomana',$,IFCTEXT('Coloan\X2\0103\X0\'),$);
#389=IFCPROPERTYSINGLEVALUE('CotaNivel',$,IFCLENGTHMEASURE(-1.),$);
#390=IFCPROPERTYSET('2dNgMBDkzEGAv_BGJC$4nY',$,'Pset_AdnotariInginerieAI',$,(#387,#388,#389));
#391=IFCRELDEFINESBYPROPERTIES('0qLidL7NHDbPPoqfWeD$lr',$,$,$,(#380),#390);
#395=IFCRECTANGLEPROFILEDEF(.AREA.,$,$,1.2,0.80000000000000004);
#396=IFCDIRECTION((0.,0.,1.));
#397=IFCEXTRUDEDAREASOLID(#395,$,#396,0.40000000000000002);
#398=IFCSHAPEREPRESENTATION(#11,'Body','SweptSolid',(#397));
#399=IFCPRODUCTDEFINITIONSHAPE($,$,(#398));
#400=IFCCOLUMN('3AShQCRPL39P7kYVfQSWaX',#406,'C18','Coloan\X2\0103\X0\ | Structural column','C30/45',#405,#399,$,$);
#401=IFCCARTESIANPOINT((0.,12.,-1.));
#402=IFCDIRECTION((0.,0.,1.));
#403=IFCDIRECTION((1.,0.,0.));
#404=IFCAXIS2PLACEMENT3D(#401,#402,#403);
#405=IFCLOCALPLACEMENT($,#404);
#406=IFCOWNERHISTORY(#3,#4,.READWRITE.,.ADDED.,1785931335,#3,#4,1785931335);
#407=IFCPROPERTYSINGLEVALUE('ClasaBeton',$,IFCLABEL('C30/45'),$);
#408=IFCPROPERTYSINGLEVALUE('DenumireRomana',$,IFCTEXT('Coloan\X2\0103\X0\'),$);
#409=IFCPROPERTYSINGLEVALUE('CotaNivel',$,IFCLENGTHMEASURE(-1.),$);
#410=IFCPROPERTYSET('0_OU2N72j2beD$sCJctkRH',$,'Pset_AdnotariInginerieAI',$,(#407,#408,#409));
#411=IFCRELDEFINESBYPROPERTIES('2ZeBI7pYz1GOCh77hJUFJJ',$,$,$,(#400),#410);
#415=IFCRECTANGLEPROFILEDEF(.AREA.,$,$,1.2,0.80000000000000004);
#416=IFCDIRECTION((0.,0.,1.));
#417=IFCEXTRUDEDAREASOLID(#415,$,#416,0.40000000000000002);
#418=IFCSHAPEREPRESENTATION(#11,'Body','SweptSolid',(#417));
#419=IFCPRODUCTDEFINITIONSHAPE($,$,(#418));
#420=IFCCOLUMN('3gzj3nJaT1Hv2QQZ7eI6Xs',#426,'C19','Coloan\X2\0103\X0\ | Structural column','C30/45',#425,#419,$,$);
#421=IFCCARTESIANPOINT((4.,12.,-1.));
#422=IFCDIRECTION((0.,0.,1.));
#423=IFCDIRECTION((1.,0.,0.));
#424=IFCAXIS2PLACEMENT3D(#421,#422,#423);
#425=IFCLOCALPLACEMENT($,#424);
#426=IFCOWNERHISTORY(#3,#4,.READWRITE.,.ADDED.,1785931335,#3,#4,1785931335);
#427=IFCPROPERTYSINGLEVALUE('ClasaBeton',$,IFCLABEL('C30/45'),$);
#428=IFCPROPERTYSINGLEVALUE('DenumireRomana',$,IFCTEXT('Coloan\X2\0103\X0\'),$);
#429=IFCPROPERTYSINGLEVALUE('CotaNivel',$,IFCLENGTHMEASURE(-1.),$);
#430=IFCPROPERTYSET('33qZn4As18OPrNeRxre0yR',$,'Pset_AdnotariInginerieAI',$,(#427,#428,#429));
#431=IFCRELDEFINESBYPROPERTIES('0Jv1UyR4r5rxAEp2MNfmvQ',$,$,$,(#420),#430);
#435=IFCRECTANGLEPROFILEDEF(.AREA.,$,$,1.2,0.80000000000000004);
#436=IFCDIRECTION((0.,0.,1.));
#437=IFCEXTRUDEDAREASOLID(#435,$,#436,0.40000000000000002);
#438=IFCSHAPEREPRESENTATION(#11,'Body','SweptSolid',(#437));
#439=IFCPRODUCTDEFINITIONSHAPE($,$,(#438));
#440=IFCCOLUMN('2mp4$Cfs5AxA54RCVFUmll',#446,'C20','Coloan\X2\0103\X0\ | Structural column','C30/45',#445,#439,$,$);
#441=IFCCARTESIANPOINT((8.,12.,-1.));
#442=IFCDIRECTION((0.,0.,1.));
#443=IFCDIRECTION((1.,0.,0.));
#444=IFCAXIS2PLACEMENT3D(#441,#442,#443);
#445=IFCLOCALPLACEMENT($,#444);
#446=IFCOWNERHISTORY(#3,#4,.READWRITE.,.ADDED.,1785931335,#3,#4,1785931335);
#447=IFCPROPERTYSINGLEVALUE('ClasaBeton',$,IFCLABEL('C30/45'),$);
#448=IFCPROPERTYSINGLEVALUE('DenumireRomana',$,IFCTEXT('Coloan\X2\0103\X0\'),$);
#449=IFCPROPERTYSINGLEVALUE('CotaNivel',$,IFCLENGTHMEASURE(-1.),$);
#450=IFCPROPERTYSET('28O6BsBS5DUBuA5zctZEs9',$,'Pset_AdnotariInginerieAI',$,(#447,#448,#449));
#451=IFCRELDEFINESBYPROPERTIES('2q8KfZUTr38wDlZO3HZYFd',$,$,$,(#440),#450);
#455=IFCRECTANGLEPROFILEDEF(.AREA.,$,$,1.2,0.80000000000000004);
#456=IFCDIRECTION((0.,0.,1.));
#457=IFCEXTRUDEDAREASOLID(#455,$,#456,0.40000000000000002);
#458=IFCSHAPEREPRESENTATION(#11,'Body','SweptSolid',(#457));
#459=IFCPRODUCTDEFINITIONSHAPE($,$,(#458));
#460=IFCCOLUMN('0PqntqVbn708inhC6NGB0e',#466,'C21','Coloan\X2\0103\X0\ | Structural column','C30/45',#465,#459,$,$);
#461=IFCCARTESIANPOINT((12.,12.,-1.));
#462=IFCDIRECTION((0.,0.,1.));
#463=IFCDIRECTION((1.,0.,0.));
#464=IFCAXIS2PLACEMENT3D(#461,#462,#463);
#465=IFCLOCALPLACEMENT($,#464);
#466=IFCOWNERHISTORY(#3,#4,.READWRITE.,.ADDED.,1785931335,#3,#4,1785931335);
#467=IFCPROPERTYSINGLEVALUE('ClasaBeton',$,IFCLABEL('C30/45'),$);
#468=IFCPROPERTYSINGLEVALUE('DenumireRomana',$,IFCTEXT('Coloan\X2\0103\X0\'),$);
#469=IFCPROPERTYSINGLEVALUE('CotaNivel',$,IFCLENGTHMEASURE(-1.),$);
#470=IFCPROPERTYSET('3D5FtXPfnFXhRkKlaamCgG',$,'Pset_AdnotariInginerieAI',$,(#467,#468,#469));
#471=IFCRELDEFINESBYPROPERTIES('1zueK8dyD7Gh_UjsYsDrvQ',$,$,$,(#460),#470);
#475=IFCRECTANGLEPROFILEDEF(.AREA.,$,$,1.2,0.80000000000000004);
#476=IFCDIRECTION((0.,0.,1.));
#477=IFCEXTRUDEDAREASOLID(#475,$,#476,0.40000000000000002);
#478=IFCSHAPEREPRESENTATION(#11,'Body','SweptSolid',(#477));
#479=IFCPRODUCTDEFINITIONSHAPE($,$,(#478));
#480=IFCCOLUMN('1EG$JITgP0UhYcvx_sffe9',#486,'C22','Coloan\X2\0103\X0\ | Structural column','C30/45',#485,#479,$,$);
#481=IFCCARTESIANPOINT((16.,12.,-1.));
#482=IFCDIRECTION((0.,0.,1.));
#483=IFCDIRECTION((1.,0.,0.));
#484=IFCAXIS2PLACEMENT3D(#481,#482,#483);
#485=IFCLOCALPLACEMENT($,#484);
#486=IFCOWNERHISTORY(#3,#4,.READWRITE.,.ADDED.,1785931335,#3,#4,1785931335);
#487=IFCPROPERTYSINGLEVALUE('ClasaBeton',$,IFCLABEL('C30/45'),$);
#488=IFCPROPERTYSINGLEVALUE('DenumireRomana',$,IFCTEXT('Coloan\X2\0103\X0\'),$);
#489=IFCPROPERTYSINGLEVALUE('CotaNivel',$,IFCLENGTHMEASURE(-1.),$);
#490=IFCPROPERTYSET('0GeJdp6rz8L9Y77u9XlgsU',$,'Pset_AdnotariInginerieAI',$,(#487,#488,#489));
#491=IFCRELDEFINESBYPROPERTIES('1Jd4VZM9T5U9T0MrmYh5SH',$,$,$,(#480),#490);
#495=IFCRECTANGLEPROFILEDEF(.AREA.,$,$,1.2,0.80000000000000004);
#496=IFCDIRECTION((0.,0.,1.));
#497=IFCEXTRUDEDAREASOLID(#495,$,#496,0.40000000000000002);
#498=IFCSHAPEREPRESENTATION(#11,'Body','SweptSolid',(#497));
#499=IFCPRODUCTDEFINITIONSHAPE($,$,(#498));
#500=IFCCOLUMN('0YxGX1wXv9MepU4Pu4eJG2',#506,'C23','Coloan\X2\0103\X0\ | Structural column','C30/45',#505,#499,$,$);
#501=IFCCARTESIANPOINT((20.,12.,-1.));
#502=IFCDIRECTION((0.,0.,1.));
#503=IFCDIRECTION((1.,0.,0.));
#504=IFCAXIS2PLACEMENT3D(#501,#502,#503);
#505=IFCLOCALPLACEMENT($,#504);
#506=IFCOWNERHISTORY(#3,#4,.READWRITE.,.ADDED.,1785931335,#3,#4,1785931335);
#507=IFCPROPERTYSINGLEVALUE('ClasaBeton',$,IFCLABEL('C30/45'),$);
#508=IFCPROPERTYSINGLEVALUE('DenumireRomana',$,IFCTEXT('Coloan\X2\0103\X0\'),$);
#509=IFCPROPERTYSINGLEVALUE('CotaNivel',$,IFCLENGTHMEASURE(-1.),$);
#510=IFCPROPERTYSET('0kYMdsLCbBeBB9IhFCwtAX',$,'Pset_AdnotariInginerieAI',$,(#507,#508,#509));
#511=IFCRELDEFINESBYPROPERTIES('3DmkMo$vn34uWgkQeqOoGh',$,$,$,(#500),#510);
#515=IFCRECTANGLEPROFILEDEF(.AREA.,$,$,1.2,0.80000000000000004);
#516=IFCDIRECTION((0.,0.,1.));
#517=IFCEXTRUDEDAREASOLID(#515,$,#516,0.40000000000000002);
#518=IFCSHAPEREPRESENTATION(#11,'Body','SweptSolid',(#517));
#519=IFCPRODUCTDEFINITIONSHAPE($,$,(#518));
#520=IFCCOLUMN('2_5NVlXUr2qP52D$KULrn1',#526,'C24','Coloan\X2\0103\X0\ | Structural column','C30/45',#525,#519,$,$);
#521=IFCCARTESIANPOINT((0.,16.,-1.));
#522=IFCDIRECTION((0.,0.,1.));
#523=IFCDIRECTION((1.,0.,0.));
#524=IFCAXIS2PLACEMENT3D(#521,#522,#523);
#525=IFCLOCALPLACEMENT($,#524);
#526=IFCOWNERHISTORY(#3,#4,.READWRITE.,.ADDED.,1785931335,#3,#4,1785931335);
#527=IFCPROPERTYSINGLEVALUE('ClasaBeton',$,IFCLABEL('C30/45'),$);
#528=IFCPROPERTYSINGLEVALUE('DenumireRomana',$,IFCTEXT('Coloan\X2\0103\X0\'),$);
#529=IFCPROPERTYSINGLEVALUE('CotaNivel',$,IFCLENGTHMEASURE(-1.),$);
#530=IFCPROPERTYSET('3kCWJsC2n6RgdMueJrg0jq',$,'Pset_AdnotariInginerieAI',$,(#527,#528,#529));
#531=IFCRELDEFINESBYPROPERTIES('3pTsoirxn2ShpcsMWRg4v6',$,$,$,(#520),#530);
#535=IFCRECTANGLEPROFILEDEF(.AREA.,$,$,1.2,0.80000000000000004);
#536=IFCDIRECTION((0.,0.,1.));
#537=IFCEXTRUDEDAREASOLID(#535,$,#536,0.40000000000000002);
#538=IFCSHAPEREPRESENTATION(#11,'Body','SweptSolid',(#537));
#539=IFCPRODUCTDEFINITIONSHAPE($,$,(#538));
#540=IFCCOLUMN('2_z3Z63OPCMP1zbIn7ntoc',#546,'C25','Coloan\X2\0103\X0\ | Structural column','C30/45',#545,#539,$,$);
#541=IFCCARTESIANPOINT((4.,16.,-1.));
#542=IFCDIRECTION((0.,0.,1.));
#543=IFCDIRECTION((1.,0.,0.));
#544=IFCAXIS2PLACEMENT3D(#541,#542,#543);
#545=IFCLOCALPLACEMENT($,#544);
#546=IFCOWNERHISTORY(#3,#4,.READWRITE.,.ADDED.,1785931335,#3,#4,1785931335);
#547=IFCPROPERTYSINGLEVALUE('ClasaBeton',$,IFCLABEL('C30/45'),$);
#548=IFCPROPERTYSINGLEVALUE('DenumireRomana',$,IFCTEXT('Coloan\X2\0103\X0\'),$);
#549=IFCPROPERTYSINGLEVALUE('CotaNivel',$,IFCLENGTHMEASURE(-1.),$);
#550=IFCPROPERTYSET('1GV8A79492VQjK4QMbPDwB',$,'Pset_AdnotariInginerieAI',$,(#547,#548,#549));
#551=IFCRELDEFINESBYPROPERTIES('1P58jS9V14Jw0TMw$DKyKT',$,$,$,(#540),#550);
#555=IFCRECTANGLEPROFILEDEF(.AREA.,$,$,1.2,0.80000000000000004);
#556=IFCDIRECTION((0.,0.,1.));
#557=IFCEXTRUDEDAREASOLID(#555,$,#556,0.40000000000000002);
#558=IFCSHAPEREPRESENTATION(#11,'Body','SweptSolid',(#557));
#559=IFCPRODUCTDEFINITIONSHAPE($,$,(#558));
#560=IFCCOLUMN('1da_DhXEL6mvlG1Notx9Qr',#566,'C26','Coloan\X2\0103\X0\ | Structural column','C30/45',#565,#559,$,$);
#561=IFCCARTESIANPOINT((8.,16.,-1.));
#562=IFCDIRECTION((0.,0.,1.));
#563=IFCDIRECTION((1.,0.,0.));
#564=IFCAXIS2PLACEMENT3D(#561,#562,#563);
#565=IFCLOCALPLACEMENT($,#564);
#566=IFCOWNERHISTORY(#3,#4,.READWRITE.,.ADDED.,1785931335,#3,#4,1785931335);
#567=IFCPROPERTYSINGLEVALUE('ClasaBeton',$,IFCLABEL('C30/45'),$);
#568=IFCPROPERTYSINGLEVALUE('DenumireRomana',$,IFCTEXT('Coloan\X2\0103\X0\'),$);
#569=IFCPROPERTYSINGLEVALUE('CotaNivel',$,IFCLENGTHMEASURE(-1.),$);
#570=IFCPROPERTYSET('0TUjcyTpP2wgp2cpODJUGG',$,'Pset_AdnotariInginerieAI',$,(#567,#568,#569));
#571=IFCRELDEFINESBYPROPERTIES('2ZYmAkZtH0QuIfnL3pa0pT',$,$,$,(#560),#570);
#575=IFCRECTANGLEPROFILEDEF(.AREA.,$,$,1.2,0.80000000000000004);
#576=IFCDIRECTION((0.,0.,1.));
#577=IFCEXTRUDEDAREASOLID(#575,$,#576,0.40000000000000002);
#578=IFCSHAPEREPRESENTATION(#11,'Body','SweptSolid',(#577));
#579=IFCPRODUCTDEFINITIONSHAPE($,$,(#578));
#580=IFCCOLUMN('24zmmEmfzDGgQXF2z7mYwu',#586,'C27','Coloan\X2\0103\X0\ | Structural column','C30/45',#585,#579,$,$);
#581=IFCCARTESIANPOINT((12.,16.,-1.));
#582=IFCDIRECTION((0.,0.,1.));
#583=IFCDIRECTION((1.,0.,0.));
#584=IFCAXIS2PLACEMENT3D(#581,#582,#583);
#585=IFCLOCALPLACEMENT($,#584);
#586=IFCOWNERHISTORY(#3,#4,.READWRITE.,.ADDED.,1785931335,#3,#4,1785931335);
#587=IFCPROPERTYSINGLEVALUE('ClasaBeton',$,IFCLABEL('C30/45'),$);
#588=IFCPROPERTYSINGLEVALUE('DenumireRomana',$,IFCTEXT('Coloan\X2\0103\X0\'),$);
#589=IFCPROPERTYSINGLEVALUE('CotaNivel',$,IFCLENGTHMEASURE(-1.),$);
#590=IFCPROPERTYSET('2KfQ96DYrAkvDjqxVHynvt',$,'Pset_AdnotariInginerieAI',$,(#587,#588,#589));
#591=IFCRELDEFINESBYPROPERTIES('3KqUYvNabAlPmZgM9QG66q',$,$,$,(#580),#590);
#595=IFCRECTANGLEPROFILEDEF(.AREA.,$,$,1.2,0.80000000000000004);
#596=IFCDIRECTION((0.,0.,1.));
#597=IFCEXTRUDEDAREASOLID(#595,$,#596,0.40000000000000002);
#598=IFCSHAPEREPRESENTATION(#11,'Body','SweptSolid',(#597));
#599=IFCPRODUCTDEFINITIONSHAPE($,$,(#598));
#600=IFCCOLUMN('3eYcgBPwD0lRtPDaoJHTF4',#606,'C28','Coloan\X2\0103\X0\ | Structural column','C30/45',#605,#599,$,$);
#601=IFCCARTESIANPOINT((16.,16.,-1.));
#602=IFCDIRECTION((0.,0.,1.));
#603=IFCDIRECTION((1.,0.,0.));
#604=IFCAXIS2PLACEMENT3D(#601,#602,#603);
#605=IFCLOCALPLACEMENT($,#604);
#606=IFCOWNERHISTORY(#3,#4,.READWRITE.,.ADDED.,1785931335,#3,#4,1785931335);
#607=IFCPROPERTYSINGLEVALUE('ClasaBeton',$,IFCLABEL('C30/45'),$);
#608=IFCPROPERTYSINGLEVALUE('DenumireRomana',$,IFCTEXT('Coloan\X2\0103\X0\'),$);
#609=IFCPROPERTYSINGLEVALUE('CotaNivel',$,IFCLENGTHMEASURE(-1.),$);
#610=IFCPROPERTYSET('3aT1vaAZ5Amw6uJosWnc0x',$,'Pset_AdnotariInginerieAI',$,(#607,#608,#609));
#611=IFCRELDEFINESBYPROPERTIES('1jBMFnKfr7RQJxNmY3$SKr',$,$,$,(#600),#610);
#615=IFCRECTANGLEPROFILEDEF(.AREA.,$,$,1.2,0.80000000000000004);
#616=IFCDIRECTION((0.,0.,1.));
#617=IFCEXTRUDEDAREASOLID(#615,$,#616,0.40000000000000002);
#618=IFCSHAPEREPRESENTATION(#11,'Body','SweptSolid',(#617));
#619=IFCPRODUCTDEFINITIONSHAPE($,$,(#618));
#620=IFCCOLUMN('0eRI8_99r3h9IGMukKIW_x',#626,'C29','Coloan\X2\0103\X0\ | Structural column','C30/45',#625,#619,$,$);
#621=IFCCARTESIANPOINT((20.,16.,-1.));
#622=IFCDIRECTION((0.,0.,1.));
#623=IFCDIRECTION((1.,0.,0.));
#624=IFCAXIS2PLACEMENT3D(#621,#622,#623);
#625=IFCLOCALPLACEMENT($,#624);
#626=IFCOWNERHISTORY(#3,#4,.READWRITE.,.ADDED.,1785931335,#3,#4,1785931335);
#627=IFCPROPERTYSINGLEVALUE('ClasaBeton',$,IFCLABEL('C30/45'),$);
#628=IFCPROPERTYSINGLEVALUE('DenumireRomana',$,IFCTEXT('Coloan\X2\0103\X0\'),$);
#629=IFCPROPERTYSINGLEVALUE('CotaNivel',$,IFCLENGTHMEASURE(-1.),$);
#630=IFCPROPERTYSET('1cxkfArz96BvlT5PMLYZnI',$,'Pset_AdnotariInginerieAI',$,(#627,#628,#629));
#631=IFCRELDEFINESBYPROPERTIES('35_jCz7lnDL8h0YI___Nx4',$,$,$,(#620),#630);
#635=IFCRECTANGLEPROFILEDEF(.AREA.,$,$,1.2,0.80000000000000004);
#636=IFCDIRECTION((0.,0.,1.));
#637=IFCEXTRUDEDAREASOLID(#635,$,#636,0.40000000000000002);
#638=IFCSHAPEREPRESENTATION(#11,'Body','SweptSolid',(#637));
#639=IFCPRODUCTDEFINITIONSHAPE($,$,(#638));
#640=IFCCOLUMN('0olxNSsEfFNRU6Y8I1drtH',#646,'C30','Coloan\X2\0103\X0\ | Structural column','C30/45',#645,#639,$,$);
#641=IFCCARTESIANPOINT((0.,20.,-1.));
#642=IFCDIRECTION((0.,0.,1.));
#643=IFCDIRECTION((1.,0.,0.));
#644=IFCAXIS2PLACEMENT3D(#641,#642,#643);
#645=IFCLOCALPLACEMENT($,#644);
#646=IFCOWNERHISTORY(#3,#4,.READWRITE.,.ADDED.,1785931335,#3,#4,1785931335);
#647=IFCPROPERTYSINGLEVALUE('ClasaBeton',$,IFCLABEL('C30/45'),$);
#648=IFCPROPERTYSINGLEVALUE('DenumireRomana',$,IFCTEXT('Coloan\X2\0103\X0\'),$);
#649=IFCPROPERTYSINGLEVALUE('CotaNivel',$,IFCLENGTHMEASURE(-1.),$);
#650=IFCPROPERTYSET('2ybsL4ap9FAODeimHUU$Fi',$,'Pset_AdnotariInginerieAI',$,(#647,#648,#649));
#651=IFCRELDEFINESBYPROPERTIES('1Bh8hsvv13ZRhy0V6KayL3',$,$,$,(#640),#650);
#655=IFCRECTANGLEPROFILEDEF(.AREA.,$,$,1.2,0.80000000000000004);
#656=IFCDIRECTION((0.,0.,1.));
#657=IFCEXTRUDEDAREASOLID(#655,$,#656,0.40000000000000002);
#658=IFCSHAPEREPRESENTATION(#11,'Body','SweptSolid',(#657));
#659=IFCPRODUCTDEFINITIONSHAPE($,$,(#658));
#660=IFCCOLUMN('0GtU4byhj4sRoBFD8lJuzI',#666,'C31','Coloan\X2\0103\X0\ | Structural column','C30/45',#665,#659,$,$);
#661=IFCCARTESIANPOINT((4.,20.,-1.));
#662=IFCDIRECTION((0.,0.,1.));
#663=IFCDIRECTION((1.,0.,0.));
#664=IFCAXIS2PLACEMENT3D(#661,#662,#663);
#665=IFCLOCALPLACEMENT($,#664);
#666=IFCOWNERHISTORY(#3,#4,.READWRITE.,.ADDED.,1785931335,#3,#4,1785931335);
#667=IFCPROPERTYSINGLEVALUE('ClasaBeton',$,IFCLABEL('C30/45'),$);
#668=IFCPROPERTYSINGLEVALUE('DenumireRomana',$,IFCTEXT('Coloan\X2\0103\X0\'),$);
#669=IFCPROPERTYSINGLEVALUE('CotaNivel',$,IFCLENGTHMEASURE(-1.),$);
#670=IFCPROPERTYSET('3wrXifdJvDS9nI7063vR0K',$,'Pset_AdnotariInginerieAI',$,(#667,#668,#669));
#671=IFCRELDEFINESBYPROPERTIES('1m2htvqbb3m8VyHnfIaTnl',$,$,$,(#660),#670);
#675=IFCRECTANGLEPROFILEDEF(.AREA.,$,$,1.2,0.80000000000000004);
#676=IFCDIRECTION((0.,0.,1.));
#677=IFCEXTRUDEDAREASOLID(#675,$,#676,0.40000000000000002);
#678=IFCSHAPEREPRESENTATION(#11,'Body','SweptSolid',(#677));
#679=IFCPRODUCTDEFINITIONSHAPE($,$,(#678));
#680=IFCCOLUMN('1VS4$g9M97e9Moz37GenXf',#686,'C32','Coloan\X2\0103\X0\ | Structural column','C30/45',#685,#679,$,$);
#681=IFCCARTESIANPOINT((8.,20.,-1.));
#682=IFCDIRECTION((0.,0.,1.));
#683=IFCDIRECTION((1.,0.,0.));
#684=IFCAXIS2PLACEMENT3D(#681,#682,#683);
#685=IFCLOCALPLACEMENT($,#684);
#686=IFCOWNERHISTORY(#3,#4,.READWRITE.,.ADDED.,1785931335,#3,#4,1785931335);
#687=IFCPROPERTYSINGLEVALUE('ClasaBeton',$,IFCLABEL('C30/45'),$);
#688=IFCPROPERTYSINGLEVALUE('DenumireRomana',$,IFCTEXT('Coloan\X2\0103\X0\'),$);
#689=IFCPROPERTYSINGLEVALUE('CotaNivel',$,IFCLENGTHMEASURE(-1.),$);
#690=IFCPROPERTYSET('0pXPeaNjX9XBlbpRaAoVzQ',$,'Pset_AdnotariInginerieAI',$,(#687,#688,#689));
#691=IFCRELDEFINESBYPROPERTIES('26hc52Il174BPD7$1FrGpm',$,$,$,(#680),#690);
#695=IFCRECTANGLEPROFILEDEF(.AREA.,$,$,1.2,0.80000000000000004);
#696=IFCDIRECTION((0.,0.,1.));
#697=IFCEXTRUDEDAREASOLID(#695,$,#696,0.40000000000000002);
#698=IFCSHAPEREPRESENTATION(#11,'Body','SweptSolid',(#697));
#699=IFCPRODUCTDEFINITIONSHAPE($,$,(#698));
#700=IFCCOLUMN('0nEIUjAJv8H9bSgPv54IeC',#706,'C33','Coloan\X2\0103\X0\ | Structural column','C30/45',#705,#699,$,$);
#701=IFCCARTESIANPOINT((12.,20.,-1.));
#702=IFCDIRECTION((0.,0.,1.));
#703=IFCDIRECTION((1.,0.,0.));
#704=IFCAXIS2PLACEMENT3D(#701,#702,#703);
#705=IFCLOCALPLACEMENT($,#704);
#706=IFCOWNERHISTORY(#3,#4,.READWRITE.,.ADDED.,1785931335,#3,#4,1785931335);
#707=IFCPROPERTYSINGLEVALUE('ClasaBeton',$,IFCLABEL('C30/45'),$);
#708=IFCPROPERTYSINGLEVALUE('DenumireRomana',$,IFCTEXT('Coloan\X2\0103\X0\'),$);
#709=IFCPROPERTYSINGLEVALUE('CotaNivel',$,IFCLENGTHMEASURE(-1.),$);
#710=IFCPROPERTYSET('3KHbdpl114sxaGiZ4if9FM',$,'Pset_AdnotariInginerieAI',$,(#707,#708,#709));
#711=IFCRELDEFINESBYPROPERTIES('0gVT8fHvfDNwcFSRnRWWmU',$,$,$,(#700),#710);
#715=IFCRECTANGLEPROFILEDEF(.AREA.,$,$,1.2,0.80000000000000004);
#716=IFCDIRECTION((0.,0.,1.));
#717=IFCEXTRUDEDAREASOLID(#715,$,#716,0.40000000000000002);
#718=IFCSHAPEREPRESENTATION(#11,'Body','SweptSolid',(#717));
#719=IFCPRODUCTDEFINITIONSHAPE($,$,(#718));
#720=IFCCOLUMN('2LoyX8VKHELwl1SPHnctSo',#726,'C34','Coloan\X2\0103\X0\ | Structural column','C30/45',#725,#719,$,$);
#721=IFCCARTESIANPOINT((16.,20.,-1.));
#722=IFCDIRECTION((0.,0.,1.));
#723=IFCDIRECTION((1.,0.,0.));
#724=IFCAXIS2PLACEMENT3D(#721,#722,#723);
#725=IFCLOCALPLACEMENT($,#724);
#726=IFCOWNERHISTORY(#3,#4,.READWRITE.,.ADDED.,1785931335,#3,#4,1785931335);
#727=IFCPROPERTYSINGLEVALUE('ClasaBeton',$,IFCLABEL('C30/45'),$);
#728=IFCPROPERTYSINGLEVALUE('DenumireRomana',$,IFCTEXT('Coloan\X2\0103\X0\'),$);
#729=IFCPROPERTYSINGLEVALUE('CotaNivel',$,IFCLENGTHMEASURE(-1.),$);
#730=IFCPROPERTYSET('07xo_6wpnAG8A4z9KgISnV',$,'Pset_AdnotariInginerieAI',$,(#727,#728,#729));
#731=IFCRELDEFINESBYPROPERTIES('1Yzl8xKOnEehIK$5pH8wD7',$,$,$,(#720),#730);
#735=IFCRECTANGLEPROFILEDEF(.AREA.,$,$,1.2,0.80000000000000004);
#736=IFCDIRECTION((0.,0.,1.));
#737=IFCEXTRUDEDAREASOLID(#735,$,#736,0.40000000000000002);
#738=IFCSHAPEREPRESENTATION(#11,'Body','SweptSolid',(#737));
#739=IFCPRODUCTDEFINITIONSHAPE($,$,(#738));
#740=IFCCOLUMN('1Oqe8gyor8jurr7cwcpuwU',#746,'C35','Coloan\X2\0103\X0\ | Structural column','C30/45',#745,#739,$,$);
#741=IFCCARTESIANPOINT((20.,20.,-1.));
#742=IFCDIRECTION((0.,0.,1.));
#743=IFCDIRECTION((1.,0.,0.));
#744=IFCAXIS2PLACEMENT3D(#741,#742,#743);
#745=IFCLOCALPLACEMENT($,#744);
#746=IFCOWNERHISTORY(#3,#4,.READWRITE.,.ADDED.,1785931335,#3,#4,1785931335);
#747=IFCPROPERTYSINGLEVALUE('ClasaBeton',$,IFCLABEL('C30/45'),$);
#748=IFCPROPERTYSINGLEVALUE('DenumireRomana',$,IFCTEXT('Coloan\X2\0103\X0\'),$);
#749=IFCPROPERTYSINGLEVALUE('CotaNivel',$,IFCLENGTHMEASURE(-1.),$);
#750=IFCPROPERTYSET('2XytOt8p9Ctf_C9ma_RBK0',$,'Pset_AdnotariInginerieAI',$,(#747,#748,#749));
#751=IFCRELDEFINESBYPROPERTIES('2_G15Bh59188DE5qcpdmdo',$,$,$,(#740),#750);
#755=IFCRECTANGLEPROFILEDEF(.AREA.,$,$,1.2,0.80000000000000004);
#756=IFCDIRECTION((0.,0.,1.));
#757=IFCEXTRUDEDAREASOLID(#755,$,#756,0.40000000000000002);
#758=IFCSHAPEREPRESENTATION(#11,'Body','SweptSolid',(#757));
#759=IFCPRODUCTDEFINITIONSHAPE($,$,(#758));
#760=IFCCOLUMN('0WeLiqXyvF9vZh6Jmhrn7L',#766,'C36','Coloan\X2\0103\X0\ | Structural column','C30/45',#765,#759,$,$);
#761=IFCCARTESIANPOINT((0.,24.,-1.));
#762=IFCDIRECTION((0.,0.,1.));
#763=IFCDIRECTION((1.,0.,0.));
#764=IFCAXIS2PLACEMENT3D(#761,#762,#763);
#765=IFCLOCALPLACEMENT($,#764);
#766=IFCOWNERHISTORY(#3,#4,.READWRITE.,.ADDED.,1785931335,#3,#4,1785931335);
#767=IFCPROPERTYSINGLEVALUE('ClasaBeton',$,IFCLABEL('C30/45'),$);
#768=IFCPROPERTYSINGLEVALUE('DenumireRomana',$,IFCTEXT('Coloan\X2\0103\X0\'),$);
#769=IFCPROPERTYSINGLEVALUE('CotaNivel',$,IFCLENGTHMEASURE(-1.),$);
#770=IFCPROPERTYSET('3k4s0d4$PAEwdpSjpRBq6p',$,'Pset_AdnotariInginerieAI',$,(#767,#768,#769));
#771=IFCRELDEFINESBYPROPERTIES('234SBFiTj8pOnxkyO7lakE',$,$,$,(#760),#770);
#775=IFCRECTANGLEPROFILEDEF(.AREA.,$,$,1.2,0.80000000000000004);
#776=IFCDIRECTION((0.,0.,1.));
#777=IFCEXTRUDEDAREASOLID(#775,$,#776,0.40000000000000002);
#778=IFCSHAPEREPRESENTATION(#11,'Body','SweptSolid',(#777));
#779=IFCPRODUCTDEFINITIONSHAPE($,$,(#778));
#780=IFCCOLUMN('2wc9IJSWHD8gOlLF_eiQKv',#786,'C37','Coloan\X2\0103\X0\ | Structural column','C30/45',#785,#779,$,$);
#781=IFCCARTESIANPOINT((4.,24.,-1.));
#782=IFCDIRECTION((0.,0.,1.));
#783=IFCDIRECTION((1.,0.,0.));
#784=IFCAXIS2PLACEMENT3D(#781,#782,#783);
#785=IFCLOCALPLACEMENT($,#784);
#786=IFCOWNERHISTORY(#3,#4,.READWRITE.,.ADDED.,1785931335,#3,#4,1785931335);
#787=IFCPROPERTYSINGLEVALUE('ClasaBeton',$,IFCLABEL('C30/45'),$);
#788=IFCPROPERTYSINGLEVALUE('DenumireRomana',$,IFCTEXT('Coloan\X2\0103\X0\'),$);
#789=IFCPROPERTYSINGLEVALUE('CotaNivel',$,IFCLENGTHMEASURE(-1.),$);
#790=IFCPROPERTYSET('23vIRJdSz5mfR5anIrqJUX',$,'Pset_AdnotariInginerieAI',$,(#787,#788,#789));
#791=IFCRELDEFINESBYPROPERTIES('0NcWzFxjv1$RZlLJvQKkRB',$,$,$,(#780),#790);
#795=IFCRECTANGLEPROFILEDEF(.AREA.,$,$,1.2,0.80000000000000004);
#796=IFCDIRECTION((0.,0.,1.));
#797=IFCEXTRUDEDAREASOLID(#795,$,#796,0.40000000000000002);
#798=IFCSHAPEREPRESENTATION(#11,'Body','SweptSolid',(#797));
#799=IFCPRODUCTDEFINITIONSHAPE($,$,(#798));
#800=IFCCOLUMN('0BA68u8T9BgRcUC87Tib8b',#806,'C38','Coloan\X2\0103\X0\ | Structural column','C30/45',#805,#799,$,$);
#801=IFCCARTESIANPOINT((8.,24.,-1.));
#802=IFCDIRECTION((0.,0.,1.));
#803=IFCDIRECTION((1.,0.,0.));
#804=IFCAXIS2PLACEMENT3D(#801,#802,#803);
#805=IFCLOCALPLACEMENT($,#804);
#806=IFCOWNERHISTORY(#3,#4,.READWRITE.,.ADDED.,1785931335,#3,#4,1785931335);
#807=IFCPROPERTYSINGLEVALUE('ClasaBeton',$,IFCLABEL('C30/45'),$);
#808=IFCPROPERTYSINGLEVALUE('DenumireRomana',$,IFCTEXT('Coloan\X2\0103\X0\'),$);
#809=IFCPROPERTYSINGLEVALUE('CotaNivel',$,IFCLENGTHMEASURE(-1.),$);
#810=IFCPROPERTYSET('1UtcquwZf7nOPiNW6rMqhc',$,'Pset_AdnotariInginerieAI',$,(#807,#808,#809));
#811=IFCRELDEFINESBYPROPERTIES('37v9ntgZj1pPK6cj1Qyoe4',$,$,$,(#800),#810);
#815=IFCRECTANGLEPROFILEDEF(.AREA.,$,$,1.2,0.80000000000000004);
#816=IFCDIRECTION((0.,0.,1.));
#817=IFCEXTRUDEDAREASOLID(#815,$,#816,0.40000000000000002);
#818=IFCSHAPEREPRESENTATION(#11,'Body','SweptSolid',(#817));
#819=IFCPRODUCTDEFINITIONSHAPE($,$,(#818));
#820=IFCCOLUMN('2NIdCY9aLCKfySPEOgh$Y0',#826,'C39','Coloan\X2\0103\X0\ | Structural column','C30/45',#825,#819,$,$);
#821=IFCCARTESIANPOINT((12.,24.,-1.));
#822=IFCDIRECTION((0.,0.,1.));
#823=IFCDIRECTION((1.,0.,0.));
#824=IFCAXIS2PLACEMENT3D(#821,#822,#823);
#825=IFCLOCALPLACEMENT($,#824);
#826=IFCOWNERHISTORY(#3,#4,.READWRITE.,.ADDED.,1785931335,#3,#4,1785931335);
#827=IFCPROPERTYSINGLEVALUE('ClasaBeton',$,IFCLABEL('C30/45'),$);
#828=IFCPROPERTYSINGLEVALUE('DenumireRomana',$,IFCTEXT('Coloan\X2\0103\X0\'),$);
#829=IFCPROPERTYSINGLEVALUE('CotaNivel',$,IFCLENGTHMEASURE(-1.),$);
#830=IFCPROPERTYSET('0uipyAWoX6QfQnyV4G7uje',$,'Pset_AdnotariInginerieAI',$,(#827,#828,#829));
#831=IFCRELDEFINESBYPROPERTIES('1eOwlzltz3FheWc1ZFjSW$',$,$,$,(#820),#830);
#835=IFCRECTANGLEPROFILEDEF(.AREA.,$,$,1.2,0.80000000000000004);
#836=IFCDIRECTION((0.,0.,1.));
#837=IFCEXTRUDEDAREASOLID(#835,$,#836,0.40000000000000002);
#838=IFCSHAPEREPRESENTATION(#11,'Body','SweptSolid',(#837));
#839=IFCPRODUCTDEFINITIONSHAPE($,$,(#838));
#840=IFCCOLUMN('0YB3CFs8j0NOB8byBijq1c',#846,'C40','Coloan\X2\0103\X0\ | Structural column','C30/45',#845,#839,$,$);
#841=IFCCARTESIANPOINT((16.,24.,-1.));
#842=IFCDIRECTION((0.,0.,1.));
#843=IFCDIRECTION((1.,0.,0.));
#844=IFCAXIS2PLACEMENT3D(#841,#842,#843);
#845=IFCLOCALPLACEMENT($,#844);
#846=IFCOWNERHISTORY(#3,#4,.READWRITE.,.ADDED.,1785931335,#3,#4,1785931335);
#847=IFCPROPERTYSINGLEVALUE('ClasaBeton',$,IFCLABEL('C30/45'),$);
#848=IFCPROPERTYSINGLEVALUE('DenumireRomana',$,IFCTEXT('Coloan\X2\0103\X0\'),$);
#849=IFCPROPERTYSINGLEVALUE('CotaNivel',$,IFCLENGTHMEASURE(-1.),$);
#850=IFCPROPERTYSET('2607KGnn1FrOzJl5DNPuN7',$,'Pset_AdnotariInginerieAI',$,(#847,#848,#849));
#851=IFCRELDEFINESBYPROPERTIES('27mKMWlkfCOPtHE8Hdnsxa',$,$,$,(#840),#850);
#855=IFCRECTANGLEPROFILEDEF(.AREA.,$,$,1.2,0.80000000000000004);
#856=IFCDIRECTION((0.,0.,1.));
#857=IFCEXTRUDEDAREASOLID(#855,$,#856,0.40000000000000002);
#858=IFCSHAPEREPRESENTATION(#11,'Body','SweptSolid',(#857));
#859=IFCPRODUCTDEFINITIONSHAPE($,$,(#858));
#860=IFCCOLUMN('11Vrvy$0X0DBWukdydhoIE',#866,'C41','Coloan\X2\0103\X0\ | Structural column','C30/45',#865,#859,$,$);
#861=IFCCARTESIANPOINT((20.,24.,-1.));
#862=IFCDIRECTION((0.,0.,1.));
#863=IFCDIRECTION((1.,0.,0.));
#864=IFCAXIS2PLACEMENT3D(#861,#862,#863);
#865=IFCLOCALPLACEMENT($,#864);
#866=IFCOWNERHISTORY(#3,#4,.READWRITE.,.ADDED.,1785931335,#3,#4,1785931335);
#867=IFCPROPERTYSINGLEVALUE('ClasaBeton',$,IFCLABEL('C30/45'),$);
#868=IFCPROPERTYSINGLEVALUE('DenumireRomana',$,IFCTEXT('Coloan\X2\0103\X0\'),$);
#869=IFCPROPERTYSINGLEVALUE('CotaNivel',$,IFCLENGTHMEASURE(-1.),$);
#870=IFCPROPERTYSET('1MoE_AY7zBI8W5HXkAjYqL',$,'Pset_AdnotariInginerieAI',$,(#867,#868,#869));
#871=IFCRELDEFINESBYPROPERTIES('1V7k3x3eDDbf3nwZn1xnnP',$,$,$,(#860),#870);
#875=IFCRECTANGLEPROFILEDEF(.AREA.,$,$,1.2,0.80000000000000004);
#876=IFCDIRECTION((0.,0.,1.));
#877=IFCEXTRUDEDAREASOLID(#875,$,#876,0.40000000000000002);
#878=IFCSHAPEREPRESENTATION(#11,'Body','SweptSolid',(#877));
#879=IFCPRODUCTDEFINITIONSHAPE($,$,(#878));
#880=IFCCOLUMN('23TwPjM355q9YFFjcIxAds',#886,'C42','Coloan\X2\0103\X0\ | Structural column','C30/45',#885,#879,$,$);
#881=IFCCARTESIANPOINT((0.,28.,-1.));
#882=IFCDIRECTION((0.,0.,1.));
#883=IFCDIRECTION((1.,0.,0.));
#884=IFCAXIS2PLACEMENT3D(#881,#882,#883);
#885=IFCLOCALPLACEMENT($,#884);
#886=IFCOWNERHISTORY(#3,#4,.READWRITE.,.ADDED.,1785931335,#3,#4,1785931335);
#887=IFCPROPERTYSINGLEVALUE('ClasaBeton',$,IFCLABEL('C30/45'),$);
#888=IFCPROPERTYSINGLEVALUE('DenumireRomana',$,IFCTEXT('Coloan\X2\0103\X0\'),$);
#889=IFCPROPERTYSINGLEVALUE('CotaNivel',$,IFCLENGTHMEASURE(-1.),$);
#890=IFCPROPERTYSET('2_lrmwyFLAzg6LRapOWCX3',$,'Pset_AdnotariInginerieAI',$,(#887,#888,#889));
#891=IFCRELDEFINESBYPROPERTIES('298IcN4yXDwOyTP$giBkTN',$,$,$,(#880),#890);
#895=IFCRECTANGLEPROFILEDEF(.AREA.,$,$,1.2,0.80000000000000004);
#896=IFCDIRECTION((0.,0.,1.));
#897=IFCEXTRUDEDAREASOLID(#895,$,#896,0.40000000000000002);
#898=IFCSHAPEREPRESENTATION(#11,'Body','SweptSolid',(#897));
#899=IFCPRODUCTDEFINITIONSHAPE($,$,(#898));
#900=IFCCOLUMN('3Wcc3gI515fvUBWLiaGuwf',#906,'C43','Coloan\X2\0103\X0\ | Structural column','C30/45',#905,#899,$,$);
#901=IFCCARTESIANPOINT((4.,28.,-1.));
#902=IFCDIRECTION((0.,0.,1.));
#903=IFCDIRECTION((1.,0.,0.));
#904=IFCAXIS2PLACEMENT3D(#901,#902,#903);
#905=IFCLOCALPLACEMENT($,#904);
#906=IFCOWNERHISTORY(#3,#4,.READWRITE.,.ADDED.,1785931335,#3,#4,1785931335);
#907=IFCPROPERTYSINGLEVALUE('ClasaBeton',$,IFCLABEL('C30/45'),$);
#908=IFCPROPERTYSINGLEVALUE('DenumireRomana',$,IFCTEXT('Coloan\X2\0103\X0\'),$);
#909=IFCPROPERTYSINGLEVALUE('CotaNivel',$,IFCLENGTHMEASURE(-1.),$);
#910=IFCPROPERTYSET('03AgfYfr16FhzaQamgyHM5',$,'Pset_AdnotariInginerieAI',$,(#907,#908,#909));
#911=IFCRELDEFINESBYPROPERTIES('3pNyG0xmn2jO6Bm6Ee3Y4X',$,$,$,(#900),#910);
#915=IFCRECTANGLEPROFILEDEF(.AREA.,$,$,1.2,0.80000000000000004);
#916=IFCDIRECTION((0.,0.,1.));
#917=IFCEXTRUDEDAREASOLID(#915,$,#916,0.40000000000000002);
#918=IFCSHAPEREPRESENTATION(#11,'Body','SweptSolid',(#917));
#919=IFCPRODUCTDEFINITIONSHAPE($,$,(#918));
#920=IFCCOLUMN('1TZRNiEWb1MeUMNC8YpSKm',#926,'C44','Coloan\X2\0103\X0\ | Structural column','C30/45',#925,#919,$,$);
#921=IFCCARTESIANPOINT((8.,28.,-1.));
#922=IFCDIRECTION((0.,0.,1.));
#923=IFCDIRECTION((1.,0.,0.));
#924=IFCAXIS2PLACEMENT3D(#921,#922,#923);
#925=IFCLOCALPLACEMENT($,#924);
#926=IFCOWNERHISTORY(#3,#4,.READWRITE.,.ADDED.,1785931335,#3,#4,1785931335);
#927=IFCPROPERTYSINGLEVALUE('ClasaBeton',$,IFCLABEL('C30/45'),$);
#928=IFCPROPERTYSINGLEVALUE('DenumireRomana',$,IFCTEXT('Coloan\X2\0103\X0\'),$);
#929=IFCPROPERTYSINGLEVALUE('CotaNivel',$,IFCLENGTHMEASURE(-1.),$);
#930=IFCPROPERTYSET('28B8UAmlL7vhke4YHoGOdX',$,'Pset_AdnotariInginerieAI',$,(#927,#928,#929));
#931=IFCRELDEFINESBYPROPERTIES('0H4l1ZxEzDMO36n_dtmsIC',$,$,$,(#920),#930);
ENDSEC;
END-ISO-10303-21;
